<svg width="58" height="37" viewBox="0 0 58 37" fill="none" xmlns="http://www.w3.org/2000/svg">
<g clip-path="url(#clip0_3905_102)">
<path d="M6.16291 28.9275C6.16281 28.964 6.16281 28.964 6.16291 28.9275V28.9275ZM0.979714 24.0109C0.808659 24.4127 0.739514 24.8148 1.0101 25.2179C0.941717 25.364 0.873443 25.4736 0.771091 25.6195C0.600361 25.9117 0.633461 26.2044 0.734509 26.4973C0.768268 26.5705 0.903823 26.6807 0.937909 26.6442C1.24398 26.5353 1.65123 26.6829 1.85615 26.3178C1.95796 26.3546 2.02579 26.3914 2.1276 26.4283C1.88859 26.8299 1.44608 27.1212 1.61431 27.6703C1.81803 27.7075 1.98779 27.7446 2.15765 27.7451C2.25892 27.9649 2.29234 28.1479 2.18988 28.3304C2.18966 28.4036 2.15537 28.5132 2.18923 28.5498C2.32458 28.7332 2.49389 28.9165 2.66332 29.0633C2.76502 29.1368 2.93456 29.247 3.03659 29.2108C3.85214 29.1401 4.70177 29.0329 5.51733 28.9621C5.72127 28.9262 5.92511 28.9268 6.12894 28.9274C6.09573 28.6713 6.26571 28.6352 6.43557 28.6356C6.46955 28.6358 6.50318 28.7456 6.5708 28.8555C6.43481 28.8917 6.29881 28.9278 6.12884 28.9639C6.26483 28.9278 6.43481 28.8917 6.5708 28.8555L7.3182 28.8578C7.14801 28.967 7.07996 29.0034 6.97793 29.0396C7.04577 29.0764 7.1136 29.1132 7.18143 29.15C7.1123 29.5521 7.00907 29.9907 7.31384 30.3208C7.04097 30.6858 6.97194 31.0513 7.1406 31.4542C7.6503 31.419 7.99003 31.4201 8.22751 31.5306C8.19331 31.6036 8.15913 31.6767 8.12494 31.7497C8.09064 31.8593 8.02247 31.9323 7.98818 32.0418C7.8855 32.2976 7.95301 32.4442 8.22468 32.4815C8.25865 32.4816 8.29263 32.4818 8.36057 32.4819C8.5644 32.4825 8.63202 32.5925 8.5974 32.8118C8.5631 32.9215 8.52869 33.0677 8.59652 33.1044C8.73188 33.2877 8.90108 33.5077 9.10459 33.618C9.27412 33.7282 9.47795 33.7288 9.68192 33.6928C10.4296 33.5854 11.1435 33.4412 11.8913 33.2971C12.2652 33.225 12.6394 33.0799 13.0123 33.337C13.0126 33.2273 13.0468 33.1542 13.047 33.1176C13.217 33.045 13.4209 33.009 13.591 32.9364C14.2033 32.6822 14.8155 32.4279 15.428 32.1372C16.3804 31.7377 17.3329 31.3016 18.2854 30.8655C18.5575 30.7566 18.8639 30.5746 19.1022 30.3924C19.3746 30.1738 19.6806 30.1015 20.0544 30.0661C20.0201 30.1757 20.0199 30.2489 19.9858 30.2853C19.8492 30.5044 19.6448 30.7233 19.5421 30.979C19.4392 31.2713 19.4383 31.6005 19.4033 31.9295C19.3685 32.222 19.2997 32.5145 19.2649 32.807C19.2304 32.9532 19.2299 33.1361 19.2295 33.2824C19.4671 33.3562 19.6708 33.3934 19.9424 33.4674C19.9418 33.6503 19.9412 33.8332 19.9067 34.0159C19.8721 34.2352 19.9396 34.3818 20.1093 34.4554C20.3469 34.5293 20.3464 34.7122 20.3117 34.9315C20.3117 34.9315 20.3118 34.8949 20.3457 34.8951C20.4138 34.8586 20.4818 34.8223 20.516 34.7858C20.5158 34.8224 20.5157 34.859 20.5156 34.8955C20.4477 34.8953 20.3797 34.8952 20.3117 34.9315C20.3456 34.9682 20.4133 35.005 20.4132 35.0781C20.5471 35.7369 20.9886 35.8114 21.4641 35.8128C22.0758 35.778 22.6874 35.7433 23.299 35.7085C23.8427 35.6735 24.387 35.3826 24.9644 35.4575C25.0663 35.4577 25.1684 35.3848 25.2705 35.3486C25.2705 35.3121 25.2705 35.312 25.2707 35.2754L24.9989 35.2746C24.999 35.238 24.999 35.238 24.9991 35.2015C25.2712 35.1292 25.5772 35.0204 25.8492 34.948C25.7129 35.0939 25.543 35.0934 25.4744 35.3127C25.5765 35.2764 25.6444 35.2766 25.7125 35.2402C26.2226 35.0588 26.7328 34.8409 27.209 34.6594C27.5831 34.5143 27.9574 34.3325 28.2977 34.114C28.9444 33.7136 29.6926 33.4598 30.3054 32.9861C30.4756 32.8769 30.6112 32.9871 30.6106 33.2065C30.6102 33.3162 30.576 33.4258 30.5416 33.5355L30.5756 33.5356C30.6441 33.3529 30.7125 33.2068 30.815 33.0242C30.8827 33.0975 30.9504 33.1709 31.0182 33.2442C31.1544 33.0984 31.2909 32.9159 31.3933 32.7699C31.4269 32.8798 31.4604 33.0261 31.4264 33.0626C31.2561 33.1718 31.3571 33.5013 31.1191 33.5372C31.1186 33.7201 31.152 33.9397 31.1513 34.1591C31.2875 34.0498 31.3897 33.9404 31.5261 33.7944C31.5589 34.1968 31.3884 34.3792 31.2522 34.5251C31.3194 34.7448 31.4207 34.9645 31.4541 35.1475C31.4868 35.5865 31.5207 35.6232 31.8944 35.6244C31.9962 35.6246 32.0982 35.5884 32.2342 35.5888C32.3361 35.5891 32.4721 35.5529 32.5398 35.6263C32.7772 35.7733 33.0151 35.7374 33.2871 35.665C33.4232 35.5923 33.5593 35.5195 33.6953 35.4834C33.8994 35.4108 34.1032 35.4114 34.2725 35.5949C34.3064 35.6315 34.4424 35.5953 34.5441 35.6322C34.5107 35.4858 34.4769 35.4126 34.4432 35.3394C34.9537 35.0117 34.9537 35.0117 35.2583 35.3783C35.3264 35.3419 35.3944 35.3056 35.4625 35.2692C35.3272 35.086 35.4632 35.0498 35.5992 35.0136C35.8031 34.9776 35.9735 34.7952 36.1768 34.9787C36.2107 35.0154 36.3128 34.9426 36.3469 34.906C36.5512 34.7604 36.7554 34.6147 36.9597 34.4689C37.0619 34.3962 37.1641 34.2867 37.3339 34.3238C37.4017 34.3606 37.5038 34.2877 37.5718 34.2514C37.9802 34.0331 38.3545 33.8147 38.7628 33.5965C39.1031 33.4147 39.4771 33.3061 39.7836 33.0509C40.2605 32.65 40.771 32.3223 41.2816 31.9946C41.656 31.7763 42.0304 31.5213 42.4049 31.2664C42.4389 31.23 42.4729 31.2301 42.5409 31.2303C42.6088 31.2305 43.1187 31.1223 43.1869 31.0493C43.3572 30.9035 43.6629 30.9044 43.6639 30.5752C43.9015 30.6491 43.8683 30.393 43.9365 30.2835C44.1406 30.2109 44.3785 30.2116 44.5146 30.1023C44.8892 29.8108 45.2299 29.4826 45.5708 29.1179C45.8092 28.8991 45.9799 28.607 46.1846 28.3151C46.3211 28.1325 46.4574 27.9867 46.6276 27.8774C46.7638 27.7681 46.8999 27.6953 47.0361 27.586C47.2064 27.4403 47.3768 27.2579 47.5471 27.112C47.8194 26.93 48.0579 26.7112 48.0591 26.3089C48.297 26.2731 48.501 26.2371 48.4337 25.9809C48.6381 25.7986 48.7746 25.6161 48.9448 25.4703C49.047 25.3974 49.1492 25.3246 49.2174 25.215C49.3197 25.1056 49.5238 24.9965 49.5242 24.8868C49.5251 24.5576 49.7973 24.4121 49.9679 24.1931C50.3769 23.7189 50.8198 23.3178 51.1949 22.8435C51.7743 22.1868 52.354 21.4936 52.9336 20.8004C53.3766 20.3262 53.8196 19.8886 54.2627 19.4145C54.7398 18.9038 55.183 18.3565 55.6603 17.8092C56.2735 17.2624 56.8528 16.6424 57.3983 16.0222C57.2972 15.7293 57.23 15.473 57.1966 15.29C57.027 15.1798 56.8573 15.1427 56.8576 15.033C56.8581 14.8867 56.9604 14.7407 56.9947 14.631C56.7234 14.4839 56.4859 14.3735 56.2144 14.2629C56.1463 14.2994 56.0102 14.3721 55.8741 14.4449C55.8413 14.079 56.147 14.0799 56.3175 13.8975C56.1138 13.8237 55.9099 13.8597 55.7743 13.7496C55.6387 13.6394 55.5375 13.4197 55.4359 13.3096C55.1639 13.382 54.9258 13.4544 54.6878 13.5269C54.5518 13.563 54.4155 13.709 54.2803 13.4891C54.2804 13.4525 54.1444 13.4887 54.0424 13.525C53.9744 13.5248 53.9063 13.5611 53.8384 13.5609C53.8052 13.3048 54.179 13.2693 54.078 12.9764C53.9758 13.0493 53.8736 13.1587 53.7713 13.2681C53.7376 13.1949 53.7039 13.1217 53.7379 13.0851C53.8408 12.7563 53.9098 12.4273 54.0466 12.0986C54.0807 12.062 54.1828 12.0258 54.2168 11.9893C54.1833 11.8429 54.1837 11.6966 54.15 11.5867C54.1504 11.4405 54.0827 11.4037 53.9466 11.4398C53.8787 11.4397 53.8106 11.476 53.8106 11.476C53.6756 11.183 53.5404 10.9631 53.439 10.78C53.5417 10.5242 53.6103 10.305 53.6789 10.0857C53.4078 9.8655 53.1706 9.64528 52.9335 9.42516C52.8655 9.42498 52.7635 9.46124 52.6614 9.49751C52.6617 9.42437 52.6619 9.35114 52.6621 9.278C52.7996 8.72979 52.6989 8.32716 52.1901 8.06961C52.1222 8.03283 51.9868 7.88612 52.0209 7.84965C52.1236 7.59391 51.9199 7.52015 51.8184 7.37355C51.4803 6.86047 50.8692 6.71235 50.3926 7.04012C50.2904 7.11296 50.1545 7.11257 50.0527 7.11226C49.9504 7.22168 49.8479 7.40427 49.7117 7.51359C49.5755 7.62291 49.3717 7.6223 49.3041 7.4758C49.2369 7.25614 49.0672 7.21906 48.9315 7.1455C49.1363 6.78035 49.5093 7.03749 49.6797 6.85512C49.6463 6.67213 49.6128 6.52573 49.5791 6.4159C49.4769 6.48875 49.4088 6.5617 49.3068 6.59797C48.5241 7.03456 47.8092 7.5445 47.1619 8.16437C45.8671 9.4407 44.6062 10.7537 43.3453 12.0667C43.2771 12.1396 43.2091 12.176 43.1409 12.249C43.107 12.2123 43.107 12.2123 43.0732 12.1756C43.1415 12.0661 43.2099 11.92 43.2781 11.8105C43.8242 10.9343 44.4043 10.0948 44.9165 9.21838C45.258 8.6342 45.5655 8.0499 45.8731 7.42901C46.0097 7.17338 46.1125 6.88108 46.0795 6.55179C45.9438 6.47824 45.8423 6.3682 45.6727 6.25797C45.8087 6.2218 45.8768 6.18543 46.0129 6.11268C45.7076 5.96547 45.5379 5.89181 45.3344 5.78147L45.3357 5.34256C45.2338 5.34226 45.1319 5.34196 45.03 5.34165C45.1327 5.04935 45.1327 5.04935 45.6765 4.97781C45.4391 4.86738 45.3034 4.79383 45.1338 4.72017C45.3044 4.42807 45.1011 4.28115 44.8636 4.17072C44.694 4.06048 44.5245 3.95025 44.3889 3.84012C44.2528 3.91286 44.1167 3.98561 43.9466 4.05826C43.9476 3.72908 43.9484 3.47304 43.9492 3.21701C43.9501 2.88783 43.7809 2.66787 43.5438 2.4477C43.4422 2.33767 43.2724 2.30059 43.1027 2.22693C43.1371 2.11731 43.1714 2.00767 43.2056 1.89805C43.1038 1.89775 43.0019 1.89744 42.8998 1.93371C42.6978 1.31132 42.664 1.27464 42.0863 1.3095C42.0523 1.30939 41.9844 1.30919 41.9845 1.27262C41.8831 1.08944 41.781 1.16229 41.6449 1.23503C41.4066 1.38063 41.2024 1.52633 40.9641 1.70849C40.8964 1.59857 40.7947 1.52511 40.7271 1.41518C40.5916 1.26848 40.4902 1.12187 40.3547 0.97516C40.1505 1.12085 39.9464 1.1934 39.7761 1.3392C38.0735 2.68746 36.5401 4.2191 35.0068 5.75075C34.3252 6.48024 33.6095 7.20965 32.928 7.90257C32.8599 7.97552 32.7578 8.01179 32.6216 8.12111C32.5883 7.90156 32.5547 7.75515 32.5552 7.60884C32.59 7.35292 32.4884 7.20631 32.2848 7.13254C32.1831 7.09567 32.1155 6.94916 32.0477 6.91239C32.013 7.16832 32.013 7.16832 31.6734 7.13073C31.7426 6.69202 31.7778 6.2532 31.8472 5.77793C31.7792 5.77772 31.7114 5.77752 31.6433 5.81389C31.5753 5.85027 31.5071 5.92322 31.4732 5.88654C31.1339 5.73922 30.8953 5.99455 30.6232 6.10347C30.4871 6.17622 30.3849 6.28564 30.249 6.28524C30.2838 6.0293 30.3524 5.77347 30.3191 5.55392C30.2865 5.1149 30.3219 4.63952 30.2212 4.2003L30.2213 4.16373C30.2557 4.01753 30.3241 3.908 30.3585 3.76179C29.9851 3.61438 29.679 3.75977 29.4409 3.83221C29.2715 3.72198 29.1019 3.61175 28.9324 3.50151C29.0684 3.42877 29.1705 3.3925 29.2385 3.35613C29.1032 3.17284 28.9678 2.98956 28.8324 2.84285C28.7646 2.76949 28.629 2.69594 28.527 2.69563C28.3912 2.69523 28.2211 2.76788 28.085 2.84062C27.6427 3.05877 27.2003 3.31349 26.7579 3.5682C26.691 3.23882 26.9637 2.91044 26.6248 2.6534C26.7609 2.58065 26.8969 2.5079 26.9991 2.43505C26.9992 2.39847 26.9653 2.3618 26.9653 2.3618C26.625 2.54367 26.285 2.65239 25.9786 2.87093C25.3319 3.27135 24.6851 3.70834 24.0724 4.10886C23.8682 4.25456 23.6646 4.1808 23.5628 4.10734C23.1563 3.74037 22.7147 3.70247 22.1713 3.66429C22.2747 3.15252 22.1063 2.67653 22.2437 2.16487C22.3808 1.76294 22.2455 1.57966 21.8379 1.54187C21.736 1.54156 21.6002 1.50459 21.4982 1.54086C21.3623 1.54045 21.2605 1.50358 21.1589 1.39354C20.9558 1.1369 20.7527 0.880264 20.5495 0.660199C20.4818 0.586848 20.38 0.549965 20.2781 0.549662C20.0742 0.585632 19.8703 0.585025 19.6661 0.694147C19.428 0.803169 19.1897 0.985342 18.9173 1.16741C18.9859 0.94816 19.0203 0.801956 19.0548 0.619179C18.7145 0.837622 18.6791 1.31301 18.3386 1.56803C18.3732 1.34868 18.4417 1.166 18.4424 0.94654C18.4429 0.763661 18.3755 0.580578 18.3082 0.360921C18.5122 0.324951 18.7161 0.288982 18.8861 0.252914C18.6486 0.142478 18.6486 0.142478 18.4444 0.2516C18.0702 0.433367 17.696 0.57856 17.3895 0.83368C16.5724 1.45304 15.7549 2.14556 14.9377 2.80151C14.8015 2.91083 14.6651 3.05673 14.4608 3.239C14.6307 3.20293 14.6987 3.20314 14.7666 3.20334C14.8683 3.2768 14.9701 3.31367 15.1058 3.38723C15.0375 3.49676 14.9691 3.64285 14.8669 3.75229C14.6283 4.0076 14.2542 4.1528 14.1851 4.55494C14.1849 4.59151 14.1509 4.5914 14.117 4.5913C13.4701 5.06487 12.8569 5.61169 12.3454 6.26854C12.209 6.45102 12.1747 6.56064 12.2082 6.74363C12.8878 6.6725 12.9896 6.70938 13.1588 6.92934C12.9887 7.03856 12.7166 7.11091 12.6142 7.29348C12.5117 7.47605 12.4434 7.58558 12.2392 7.69471C12.1031 7.76745 12.0686 7.95024 12.1701 8.09684C12.2377 8.24335 12.3738 8.1706 12.4759 8.09775C12.612 8.025 12.7143 7.91558 12.8502 7.8794C12.8843 7.84293 12.986 7.91639 13.02 7.91648C12.9858 7.98954 12.9856 8.06269 12.9515 8.09916C12.8833 8.17212 12.7813 8.20839 12.7131 8.28134C12.645 8.35429 12.5089 8.42703 12.5086 8.50019C12.5419 8.75632 12.3719 8.79239 12.2358 8.86514C12.1336 8.93801 12.0315 9.01081 11.9294 9.08368C11.9968 9.26676 12.0304 9.41321 12.0639 9.55959C12.0297 9.59602 11.9956 9.66908 11.9955 9.70569C10.1889 11.712 8.41651 13.6818 6.60998 15.6882C5.82611 16.5271 5.04224 17.3661 4.29224 18.2416C3.95143 18.6064 3.64448 19.0078 3.47309 19.5194C3.4046 19.702 3.30203 19.9212 3.1657 20.0671C2.65437 20.6507 2.10908 21.2344 1.59775 21.8181C1.29091 22.1829 0.984176 22.5112 0.778925 22.9861C0.710332 23.2053 0.675817 23.3882 0.845132 23.5715C1.1511 23.4992 1.11648 23.7186 0.979714 24.0109ZM19.503 32.6979C19.5702 32.9176 19.6377 33.1007 19.6711 33.2837C19.3312 33.3192 19.2974 33.2825 19.503 32.6979ZM55.2641 13.9676C55.2642 13.931 55.3662 13.8947 55.4003 13.8582C55.4341 13.9315 55.5018 14.0048 55.5017 14.0414C55.4673 14.151 55.3991 14.2606 55.3309 14.3335C55.2969 14.3334 55.2631 14.2967 55.2631 14.2967C55.2634 14.187 55.2297 14.0771 55.2641 13.9676ZM53.408 9.79236C53.2714 10.0113 53.5426 10.2316 53.2704 10.3771C53.169 10.1574 53.0677 9.9742 52.9325 9.75434C53.1023 9.75486 53.2042 9.79174 53.408 9.79236ZM52.4608 8.43618C52.4604 8.58248 52.4939 8.72888 52.4936 8.83861C52.4596 8.8385 52.4255 8.87498 52.4255 8.87498C52.3578 8.80163 52.256 8.72818 52.1205 8.61804C52.2566 8.5453 52.3247 8.50892 52.4608 8.43618ZM52.1191 9.09352C52.2545 9.27685 52.2878 9.45975 52.1177 9.56898C52.0837 9.56889 52.0499 9.53228 52.0159 9.5321C52.0164 9.34929 52.0847 9.23971 52.1191 9.09352ZM50.8338 7.18774C51.0721 7.04214 51.3776 7.07962 51.615 7.26322C51.445 7.29929 51.275 7.33536 51.1049 7.40801C50.9348 7.48065 50.7648 7.5533 50.6286 7.66262C50.5947 7.62595 50.5608 7.58926 50.527 7.55259C50.6292 7.44316 50.6977 7.26049 50.8338 7.18774ZM47.9098 7.98372C48.0119 7.91086 48.114 7.83802 48.1483 7.76497C48.3193 7.36314 48.6927 7.4374 49.0669 7.29221C48.8619 7.65736 48.8605 8.13285 48.3176 7.94836C48.2497 7.91158 48.1815 8.0211 48.1134 8.05747C47.7388 8.34898 47.3642 8.67704 47.0236 8.96866C46.9897 8.93196 46.9897 8.93196 46.9558 8.89529C47.2966 8.56711 47.6032 8.27541 47.9098 7.98372ZM44.4825 29.4804C44.4823 29.5535 44.4821 29.6267 44.482 29.6633C44.4475 29.846 44.3797 29.7727 44.21 29.699C44.3123 29.5896 44.3804 29.5533 44.4825 29.4804ZM45.7398 6.55078C45.9428 6.844 45.908 7.09993 45.4988 7.61078C45.6018 7.2819 45.6708 6.91634 45.7398 6.55078ZM44.6595 4.24326C44.7275 4.24347 44.7611 4.35329 44.829 4.39007C44.7609 4.42644 44.6926 4.53597 44.6586 4.53587C44.5569 4.49899 44.4891 4.42563 44.3195 4.35198C44.4895 4.27933 44.5576 4.24296 44.6595 4.24326ZM43.5087 2.81336C43.7125 2.81397 43.678 2.99674 43.6435 3.17952L43.3378 3.17861C43.2365 2.95885 43.3049 2.81275 43.5087 2.81336ZM43.3024 3.654L43.3363 3.6541C43.3021 3.72715 43.3018 3.83688 43.2676 3.90993C43.2337 3.90983 43.2337 3.90983 43.1998 3.87316C43.2338 3.83667 43.2682 3.72705 43.3024 3.654ZM42.1537 1.49258C42.1532 1.67546 42.1868 1.82187 42.1525 1.89492C42.016 2.11397 41.8118 2.22309 41.4722 2.1855C41.7108 1.93018 41.9152 1.7479 42.1537 1.49258ZM40.0476 1.44974C40.2856 1.37729 40.4894 1.3779 40.7274 1.34203C40.7269 1.48833 40.7605 1.63474 40.7598 1.81762C40.7259 1.81752 40.6918 1.854 40.6918 1.854C40.6581 1.78074 40.6242 1.74406 40.5566 1.63413C40.5222 1.74376 40.4881 1.81681 40.4539 1.88986C40.2162 1.85258 39.9786 1.77872 39.741 1.74144C39.7755 1.55866 39.9116 1.48591 40.0476 1.44974ZM39.8762 1.9613C39.8418 2.10751 39.8753 2.2539 39.8072 2.29028C39.705 2.3997 39.6028 2.50913 39.4667 2.5453C38.9905 2.76334 38.6157 3.12799 38.2409 3.49264C38.0706 3.63844 37.9004 3.74766 37.7301 3.89346C37.6962 3.85678 37.6963 3.8202 37.6625 3.78353C38.3778 3.16386 38.9914 2.47074 39.8762 1.9613ZM36.5038 5.02367C36.7087 4.65852 37.0151 4.43997 37.3555 4.22153C37.1505 4.58669 36.8439 4.87838 36.5035 5.09682C36.5035 5.09682 36.4697 5.06015 36.5038 5.02367ZM36.4694 5.13331C36.4012 5.24283 36.333 5.31577 36.1965 5.49825C36.2994 5.20595 36.2994 5.20595 36.4694 5.13331ZM32.3715 35.1137C32.2011 35.2961 32.2011 35.2961 31.8952 35.3317C31.8953 35.2952 31.8614 35.2585 31.8615 35.2219C32.0315 35.1859 32.1675 35.1497 32.3715 35.1137ZM32.2502 7.35191C32.3177 7.53499 32.2493 7.68109 32.1133 7.71726C31.9433 7.75333 31.7735 7.71625 31.7064 7.46001C31.9103 7.42405 32.0802 7.38797 32.2502 7.35191ZM29.5765 3.94236C29.7128 3.83303 29.8828 3.76038 30.0187 3.76078C30.1886 3.76129 30.188 3.94417 30.2216 4.09058C30.0512 4.27295 29.8472 4.30892 29.6436 4.23516C29.5419 4.16171 29.4745 3.97862 29.5765 3.94236ZM28.2645 33.8579C28.2304 33.8944 28.1965 33.8943 28.1625 33.8942C28.1285 33.8941 28.0946 33.8574 28.0269 33.784C28.1289 33.7477 28.1629 33.7478 28.1969 33.748C28.2307 33.7846 28.2645 33.8579 28.2645 33.8579ZM28.1165 3.68197C28.1163 3.75512 28.1501 3.7918 28.15 3.82838C28.0819 3.90132 27.9798 3.9376 27.9116 4.01055C27.8778 3.97387 27.8779 3.9373 27.844 3.90062C27.9122 3.82767 28.0144 3.75482 28.1165 3.68197ZM27.1765 34.1472C27.2106 34.1108 27.2785 34.1476 27.3805 34.1113C27.3122 34.2208 27.2781 34.2573 27.244 34.2938C27.21 34.3302 27.1421 34.2934 27.0402 34.2932C27.1084 34.2202 27.1425 34.1838 27.1765 34.1472ZM25.942 3.74866C25.9422 3.71208 25.9422 3.67551 25.9423 3.63893C26.0103 3.63913 26.0783 3.63933 26.1462 3.63953C26.1462 3.63953 26.146 3.67611 26.146 3.71268L25.942 3.74866ZM26.5219 2.9457C26.5559 2.94581 26.5899 2.9459 26.6238 2.98258C26.5893 3.16536 26.5547 3.34814 26.5199 3.64065C26.317 3.31085 26.4873 3.16505 26.5219 2.9457ZM26.2161 2.98137C26.4198 3.01855 26.3853 3.20133 26.2829 3.34733C26.1471 3.34692 26.0112 3.34652 25.8414 3.30944C25.91 3.09018 26.0123 2.94418 26.2161 2.98137ZM25.67 3.821C25.6358 3.89405 25.6355 4.00378 25.5676 4.00357C25.0571 4.29466 24.5805 4.62244 24.0701 4.91353C24.4792 4.40267 25.3982 3.82019 25.67 3.821ZM23.1559 3.85009C23.2578 3.88698 23.3255 3.96033 23.4273 3.99721C23.4272 4.03379 23.4271 4.07036 23.3931 4.07026C23.3251 4.07006 23.2912 4.06995 23.2234 4.03318C23.1555 3.9964 23.1217 3.95972 23.0879 3.88647C23.1219 3.88657 23.122 3.84999 23.1559 3.85009ZM22.9186 3.70308C22.9185 3.73966 22.9183 3.77624 22.9182 3.81281C22.816 3.92224 22.6465 3.812 22.5107 3.77503C22.6466 3.77543 22.7826 3.73925 22.9186 3.70308ZM21.2989 34.276C21.435 34.2033 21.5031 34.1304 21.6052 34.0575C21.639 34.1308 21.6729 34.1674 21.6727 34.204C21.6045 34.3135 21.5365 34.35 21.2989 34.276ZM22.0074 1.6521C22.1091 1.72555 22.109 1.76213 22.0061 2.09102C21.7345 2.01705 21.3264 2.16214 21.2261 1.64977C21.5324 1.43122 21.8043 1.43203 22.0074 1.6521ZM20.0449 33.2482C19.9772 33.1749 19.9433 33.1382 19.8756 33.0649C19.9097 33.0283 19.9439 32.9553 19.9438 32.9919C20.0116 33.0287 20.0793 33.102 20.1471 33.1388L20.0449 33.2482ZM20.0387 1.09759C19.9699 1.35343 19.8342 1.31645 19.6986 1.20631C19.8006 1.17004 19.9027 1.13377 20.0387 1.09759ZM19.902 1.35323C19.9017 1.46296 19.9015 1.49953 19.9014 1.53611C19.8334 1.57248 19.7314 1.60875 19.6633 1.64513C19.6634 1.60855 19.6296 1.57187 19.6297 1.5353C19.6977 1.49892 19.7659 1.42597 19.902 1.35323ZM18.1708 0.872581C18.1708 0.872581 18.2049 0.836107 18.2048 0.872683L18.2387 0.909359C18.2044 0.982408 18.2043 1.05556 18.17 1.12861C18.1361 1.12851 18.136 1.12851 18.1021 1.12841C18.1364 1.01878 18.1706 0.945734 18.1708 0.872581ZM17.899 0.908349C17.9328 0.945027 17.9325 1.05475 17.8985 1.05465C17.7623 1.16397 17.6946 1.09062 17.593 0.980592C17.6954 0.798014 17.7975 0.761741 17.899 0.908349ZM15.8896 2.58488C16.2982 2.25691 16.6731 1.85569 17.2516 1.52822C17.2172 1.67443 17.217 1.74758 17.183 1.74747C16.8765 2.0026 16.5359 2.2942 16.1956 2.51264C16.1273 2.58559 15.9915 2.58518 15.8895 2.62145C15.8555 2.62136 15.8556 2.58478 15.8896 2.58488ZM15.8554 2.65793C15.8551 2.73109 15.855 2.80424 15.821 2.80413C15.6167 2.94984 15.4125 3.05895 15.2084 3.16807C15.345 2.91245 15.5494 2.73017 15.8554 2.65793ZM14.8691 3.02076C14.9713 2.91134 15.0736 2.80191 15.1759 2.65591C15.1412 2.91184 15.1412 2.91184 14.8691 3.02076ZM2.59755 28.3317C2.4608 28.6239 2.35964 28.3675 2.22374 28.3671C2.3261 28.2211 2.42834 28.1117 2.59755 28.3317ZM1.78994 25.7324L1.85778 25.7691C1.85767 25.8057 1.82347 25.8787 1.7894 25.9152C1.72156 25.8784 1.6877 25.8418 1.65372 25.8417C1.72178 25.8052 1.75586 25.7688 1.78994 25.7324ZM45.6408 5.56293C45.6748 5.56303 45.7088 5.56313 45.7427 5.56323C45.7429 5.49008 45.7092 5.41683 45.7094 5.34367C45.6754 5.34357 45.6754 5.34357 45.6414 5.34347C45.6073 5.41652 45.641 5.48978 45.6408 5.56293ZM56.0151 12.7262C55.9813 12.6895 55.9814 12.653 55.9475 12.6162C55.9136 12.6162 55.8795 12.6526 55.8455 12.6525C55.8794 12.6892 55.8792 12.7257 55.8792 12.7257C55.9471 12.7625 55.9812 12.7261 56.0151 12.7262ZM49.9531 6.30728C49.9533 6.2707 49.9533 6.2707 49.9531 6.30728C49.8173 6.30688 49.7153 6.30657 49.5794 6.30617C49.7153 6.30657 49.8512 6.30699 49.9531 6.30728Z" fill="#FF2E2E" fill-opacity="0.1"/>
</g>
<defs>
<clipPath id="clip0_3905_102">
<rect width="57.0732" height="36" fill="white" transform="translate(0.622559 0.116211)"/>
</clipPath>
</defs>
</svg>
