<svg width="46" height="46" viewBox="0 0 46 46" fill="none" xmlns="http://www.w3.org/2000/svg">
<path d="M23.5124 13.5414L36.608 19.5624L44.5858 15.4982L23.2114 4.96151L1.83691 15.4982L23.2114 26.1854L34.9523 20.315L22.9103 14.7456L23.5124 13.5414ZM39.167 28.2928C39.167 28.7945 39.3426 29.221 39.6938 29.5722C40.045 29.9235 40.4715 30.0991 40.9732 30.0991C41.475 30.0991 41.8764 29.9235 42.1774 29.5722C42.4785 29.221 42.629 28.7945 42.629 28.2928C42.629 27.791 42.4785 27.3646 42.1774 27.0133C41.8764 26.6621 41.475 26.4865 40.9732 26.4865C40.4715 26.4865 40.045 26.6621 39.6938 27.0133C39.3426 27.3646 39.167 27.791 39.167 28.2928ZM40.2206 25.1318C40.7224 25.0314 41.1739 25.0314 41.5753 25.1318V21.8202L36.608 19.5624L34.9523 20.315L40.2206 22.7234V25.1318ZM42.629 31.0022C42.1273 31.3033 41.5753 31.4538 40.9732 31.4538C40.3711 31.4538 39.8192 31.3033 39.3175 31.0022L37.9628 41.6895H43.8332L42.629 31.0022ZM35.1028 21.9708L23.2114 27.8412L9.06208 20.7666V32.2064L9.36313 32.3569C13.9792 35.2671 18.5953 36.7221 23.2114 36.7221C27.8275 36.7221 32.4435 35.2671 37.0596 32.3569L37.3607 32.2064V22.8739L35.1028 21.9708Z" fill="#9B51E0"/>
</svg>
