<svg width="44" height="44" viewBox="0 0 44 44" fill="none" xmlns="http://www.w3.org/2000/svg">
<path d="M31.306 33.8432C31.1149 33.8432 30.9477 33.9148 30.8044 34.0582C30.661 34.2015 30.5894 34.3926 30.5894 34.6315C30.5894 34.8704 30.661 35.0854 30.8044 35.2765C30.9477 35.4676 31.1388 35.5632 31.3777 35.5632C31.6166 35.5632 31.8077 35.4676 31.951 35.2765C32.0944 35.0854 32.166 34.8704 32.166 34.6315C32.166 34.3926 32.0944 34.2015 31.951 34.0582C31.8077 33.9148 31.5927 33.8432 31.306 33.8432ZM33.456 31.1198L29.4427 29.8298L28.0094 26.9632C29.3472 25.5298 30.1594 23.9054 30.446 22.0898L30.7327 20.9432H32.166C32.9305 20.9432 33.5516 20.7043 34.0294 20.2265C34.5072 19.7487 34.746 19.1754 34.746 18.5065V13.2032C34.746 10.9098 34.1727 8.80762 33.026 6.89651C31.8794 4.9854 30.3505 3.45651 28.4394 2.30984C26.5283 1.16318 24.426 0.589844 22.1327 0.589844C19.8394 0.589844 17.7372 1.16318 15.826 2.30984C13.9149 3.45651 12.386 4.9854 11.2394 6.89651C10.0927 8.80762 9.51938 10.9098 9.51938 13.2032V18.5065C9.51938 18.9843 9.6866 19.4621 10.021 19.9398C10.3555 20.4176 10.7616 20.7043 11.2394 20.7998V21.8032C11.2394 22.5676 11.4783 23.1887 11.956 23.6665C12.4338 24.1443 13.0072 24.3832 13.676 24.3832H14.536C14.8227 25.1476 15.2527 25.8643 15.826 26.5332L16.256 26.9632L14.8227 29.8298L10.8094 31.1198C8.51605 31.8843 6.60494 33.3654 5.07605 35.5632C3.54716 37.761 2.78271 40.1498 2.78271 42.7298C2.78271 43.0165 2.87827 43.2315 3.06938 43.3748C3.26049 43.5182 3.4516 43.5898 3.64271 43.5898H40.6227C40.8138 43.5898 41.0049 43.5182 41.196 43.3748C41.3872 43.2315 41.4827 43.0165 41.4827 42.7298C41.4827 40.1498 40.7183 37.761 39.1894 35.5632C37.6605 33.3654 35.7494 31.8843 33.456 31.1198ZM33.026 18.5065C33.026 18.6976 32.9544 18.8887 32.811 19.0798C32.6677 19.271 32.4527 19.3665 32.166 19.3665H30.876C31.1627 17.6465 31.306 15.9265 31.306 14.2065V14.0632H33.026V18.5065ZM12.0994 19.3665C11.8127 19.3665 11.5977 19.271 11.4544 19.0798C11.311 18.8887 11.2394 18.6976 11.2394 18.5065V14.0632H12.9594V14.3498C12.9594 15.9743 13.1027 17.6465 13.3894 19.3665H12.0994ZM13.676 22.6632C13.4849 22.6632 13.3177 22.5915 13.1744 22.4482C13.031 22.3048 12.9594 22.0898 12.9594 21.8032V20.9432H13.5327L13.8194 22.6632H13.676ZM12.9594 12.3432H11.2394C11.4305 10.5276 12.0038 8.83151 12.9594 7.25484C13.9149 5.67818 15.2049 4.45984 16.8294 3.59985C18.4538 2.73985 20.2216 2.30984 22.1327 2.30984C24.0438 2.30984 25.7877 2.73985 27.3644 3.59985C28.941 4.45984 30.231 5.67818 31.2344 7.25484C32.2377 8.83151 32.8349 10.5276 33.026 12.3432H31.306C31.306 10.8143 30.9238 9.40485 30.1594 8.11485C29.3949 6.82484 28.3677 5.79762 27.0777 5.03318C25.7877 4.26873 24.3783 3.88651 22.8494 3.88651H21.416C19.8872 3.88651 18.4777 4.26873 17.1877 5.03318C15.8977 5.79762 14.8705 6.82484 14.106 8.11485C13.3416 9.40485 12.9594 10.8143 12.9594 12.3432ZM21.416 5.60651H22.8494C24.7605 5.60651 26.3849 6.2754 27.7227 7.61318C29.0605 8.95095 29.7294 10.5754 29.7294 12.4865V13.2032L28.5827 13.0598C25.6205 12.5821 23.0883 11.2921 20.986 9.18985C20.8905 9.09429 20.6994 9.04651 20.4127 9.04651C19.266 9.04651 18.191 9.2854 17.1877 9.76318C16.1844 10.241 15.3483 10.9098 14.6794 11.7698C14.7749 10.0498 15.4677 8.59262 16.7577 7.39818C18.0477 6.20373 19.6005 5.60651 21.416 5.60651ZM15.6827 22.6632C15.396 21.9943 15.1572 20.7998 14.966 19.0798C14.7749 17.3598 14.6794 15.831 14.6794 14.4932L15.6827 13.0598C16.256 12.2954 16.9249 11.7221 17.6894 11.3398C18.4538 10.9576 19.266 10.7187 20.126 10.6232C22.4194 12.9165 25.1905 14.2543 28.4394 14.6365L29.586 14.9232C29.4905 16.6432 29.3472 18.3154 29.156 19.9398L28.8694 21.8032C28.5827 23.141 27.9855 24.3593 27.0777 25.4582C26.1699 26.5571 25.1188 27.2498 23.9244 27.5365C22.7299 27.8232 21.5594 27.8232 20.4127 27.5365C18.6927 27.0587 17.3549 26.0076 16.3994 24.3832H18.1194C18.3105 24.861 18.621 25.2671 19.051 25.6015C19.481 25.936 19.9349 26.1032 20.4127 26.1032H22.1327C22.8016 26.1032 23.3988 25.8404 23.9244 25.3148C24.4499 24.7893 24.7127 24.1921 24.7127 23.5232C24.7127 22.8543 24.4499 22.2571 23.9244 21.7315C23.3988 21.206 22.8016 20.9432 22.1327 20.9432H20.4127C19.9349 20.9432 19.481 21.1104 19.051 21.4448C18.621 21.7793 18.3105 22.1854 18.1194 22.6632H15.6827ZM20.4127 29.2565C20.986 29.3521 21.5355 29.3998 22.061 29.3998C22.5866 29.3998 23.0883 29.3521 23.566 29.2565L21.9894 30.8332L20.4127 29.2565ZM20.8427 32.1232L18.2627 34.8465C17.4983 33.5087 16.8294 32.0754 16.256 30.5465L17.2594 28.5398L20.8427 32.1232ZM26.8627 28.2532L28.0094 30.5465C27.436 32.0754 26.7672 33.5087 26.0027 34.8465L23.2794 32.1232L26.8627 28.2532ZM19.5527 23.5232C19.5527 23.3321 19.6483 23.141 19.8394 22.9498C20.0305 22.7587 20.2216 22.6632 20.4127 22.6632H22.1327C22.3238 22.6632 22.5149 22.7587 22.706 22.9498C22.8972 23.141 22.9927 23.3321 22.9927 23.5232C22.9927 23.7143 22.8972 23.9054 22.706 24.0965C22.5149 24.2876 22.3238 24.3832 22.1327 24.3832H20.4127C20.2216 24.3832 20.0305 24.2876 19.8394 24.0965C19.6483 23.9054 19.5527 23.7143 19.5527 23.5232ZM4.50271 41.8698C4.69383 39.7676 5.41049 37.8804 6.65271 36.2082C7.89494 34.536 9.4716 33.3654 11.3827 32.6965L14.8227 31.5498C15.4916 33.3654 16.3038 35.0854 17.2594 36.7098C17.9283 37.9521 18.6927 39.1465 19.5527 40.2932L20.556 41.8698H4.50271ZM22.1327 41.1532L20.986 39.2898C20.3172 38.3343 19.696 37.3787 19.1227 36.4232L21.9894 33.2698L25.1427 36.4232C24.5694 37.3787 23.9483 38.3343 23.2794 39.2898L22.1327 41.1532ZM23.7094 41.8698L24.7127 40.2932C25.5727 39.1465 26.3372 37.9521 27.006 36.7098C27.9616 35.0854 28.7738 33.3654 29.4427 31.5498L32.8827 32.6965C34.7938 33.3654 36.3705 34.536 37.6127 36.2082C38.8549 37.8804 39.5716 39.7676 39.7627 41.8698H23.7094ZM37.1827 38.5732C36.6094 37.4265 35.8449 36.4232 34.8894 35.5632C34.6983 35.4676 34.4833 35.4437 34.2444 35.4915C34.0055 35.5393 33.8144 35.6348 33.671 35.7782C33.5277 35.9215 33.4799 36.1126 33.5277 36.3515C33.5755 36.5904 33.6472 36.8054 33.7427 36.9965C34.6027 37.5698 35.2716 38.3343 35.7494 39.2898C35.8449 39.481 35.9883 39.6243 36.1794 39.7198C36.3705 39.8154 36.5855 39.7915 36.8244 39.6482C37.0633 39.5048 37.2066 39.3376 37.2544 39.1465C37.3022 38.9554 37.2783 38.7643 37.1827 38.5732Z" fill="#2494E4"/>
</svg>
