<svg width="51" height="28" viewBox="0 0 51 28" fill="none" xmlns="http://www.w3.org/2000/svg">
<g clip-path="url(#clip0_3905_93)">
<path d="M5.42567 21.8502C5.42558 21.8778 5.42558 21.8778 5.42567 21.8502V21.8502ZM0.932057 18.1414C0.783759 18.4445 0.723819 18.7479 0.9584 19.0519C0.899115 19.1621 0.839925 19.2448 0.751189 19.3549C0.603174 19.5753 0.631876 19.7961 0.719474 20.017C0.748741 20.0723 0.866262 20.1553 0.895813 20.1278C1.16117 20.0458 1.51422 20.157 1.69189 19.8816C1.78015 19.9094 1.83896 19.9371 1.92722 19.9649C1.72001 20.2679 1.33638 20.4877 1.48222 20.9019C1.65884 20.9299 1.80602 20.958 1.95328 20.9583C2.04107 21.1241 2.07005 21.2621 1.98122 21.3998C1.98103 21.455 1.9513 21.5377 1.98066 21.5653C2.098 21.7037 2.24478 21.842 2.39167 21.9527C2.47984 22.0081 2.62682 22.0913 2.71528 22.0639C3.42233 22.0106 4.15893 21.9297 4.86598 21.8763C5.04279 21.8492 5.21951 21.8497 5.39622 21.8501C5.36743 21.6569 5.51479 21.6297 5.66206 21.63C5.6915 21.6301 5.72067 21.713 5.77929 21.7959C5.66139 21.8232 5.54348 21.8505 5.39613 21.8777C5.51403 21.8504 5.66139 21.8232 5.77929 21.7959L6.42725 21.7976C6.2797 21.88 6.22071 21.9074 6.13225 21.9348C6.19106 21.9625 6.24988 21.9903 6.30868 22.018C6.24874 22.3214 6.15925 22.6522 6.42348 22.9012C6.18691 23.1766 6.12706 23.4523 6.27329 23.7562C6.71517 23.7297 7.0097 23.7305 7.21558 23.8138C7.18594 23.8689 7.1563 23.924 7.12666 23.9791C7.09693 24.0618 7.03783 24.1168 7.00809 24.1995C6.91908 24.3924 6.97761 24.5029 7.21313 24.5312C7.24258 24.5312 7.27204 24.5313 7.33095 24.5315C7.50766 24.5319 7.56628 24.6148 7.53627 24.7803C7.50652 24.863 7.4767 24.9733 7.53551 25.001C7.65285 25.1393 7.79955 25.3052 7.97598 25.3885C8.12296 25.4716 8.29967 25.472 8.4765 25.445C9.12469 25.3638 9.74357 25.2551 10.3919 25.1464C10.7161 25.092 11.0405 24.9825 11.3638 25.1765C11.3641 25.0937 11.3937 25.0386 11.3938 25.011C11.5413 24.9562 11.718 24.9291 11.8655 24.8743C12.3963 24.6825 12.9271 24.4907 13.4581 24.2714C14.2838 23.9701 15.1096 23.6411 15.9353 23.3121C16.1712 23.23 16.4368 23.0927 16.6434 22.9553C16.8797 22.7904 17.1449 22.7359 17.469 22.7091C17.4392 22.7918 17.4391 22.8469 17.4095 22.8745C17.2911 23.0398 17.1139 23.2048 17.0248 23.3977C16.9358 23.6182 16.9348 23.8665 16.9045 24.1148C16.8743 24.3355 16.8147 24.556 16.7845 24.7767C16.7547 24.887 16.7542 25.0249 16.7538 25.1353C16.9598 25.191 17.1364 25.219 17.3719 25.2748C17.3714 25.4128 17.3709 25.5507 17.341 25.6886C17.311 25.854 17.3695 25.9646 17.5166 26.0201C17.7226 26.0759 17.7221 26.2138 17.692 26.3793C17.692 26.3793 17.6921 26.3517 17.7216 26.3517C17.7806 26.3243 17.8396 26.2969 17.8692 26.2694C17.869 26.297 17.8689 26.3246 17.8689 26.3522C17.81 26.352 17.751 26.3518 17.692 26.3793C17.7214 26.4069 17.7802 26.4347 17.78 26.4899C17.8961 26.9868 18.2789 27.043 18.6912 27.0441C19.2214 27.0178 19.7517 26.9916 20.2819 26.9654C20.7533 26.939 21.2252 26.7196 21.7257 26.776C21.8141 26.7762 21.9026 26.7213 21.9911 26.6939C21.9912 26.6663 21.9912 26.6663 21.9913 26.6387L21.7556 26.6381C21.7558 26.6105 21.7558 26.6105 21.7559 26.5829C21.9917 26.5283 22.257 26.4463 22.4928 26.3917C22.3747 26.5018 22.2274 26.5014 22.1679 26.6668C22.2564 26.6394 22.3153 26.6395 22.3743 26.6121C22.8166 26.4754 23.2589 26.3109 23.6717 26.1741C23.996 26.0645 24.3205 25.9274 24.6156 25.7626C25.1762 25.4606 25.8249 25.2691 26.3562 24.9118C26.5037 24.8294 26.6213 24.9125 26.6207 25.078C26.6204 25.1608 26.5907 25.2435 26.561 25.3262L26.5904 25.3263C26.6498 25.1885 26.7091 25.0783 26.798 24.9406C26.8566 24.9959 26.9153 25.0512 26.9741 25.1065C27.0922 24.9965 27.2105 24.8588 27.2993 24.7487C27.3285 24.8316 27.3575 24.942 27.328 24.9695C27.1804 25.0519 27.2679 25.3005 27.0616 25.3275C27.0612 25.4654 27.0901 25.6311 27.0895 25.7966C27.2076 25.7141 27.2963 25.6316 27.4145 25.5215C27.4429 25.8251 27.2951 25.9627 27.177 26.0727C27.2353 26.2385 27.3231 26.4042 27.3521 26.5423C27.3804 26.8734 27.4098 26.9011 27.7337 26.9019C27.822 26.9022 27.9105 26.8748 28.0283 26.8751C28.1167 26.8753 28.2346 26.8481 28.2933 26.9034C28.4991 27.0142 28.7054 26.9872 28.9412 26.9326C29.0592 26.8777 29.1772 26.8229 29.2951 26.7956C29.472 26.7409 29.6487 26.7413 29.7955 26.8796C29.8248 26.9074 29.9428 26.88 30.031 26.9079C30.002 26.7974 29.9727 26.7422 29.9434 26.6869C30.386 26.4397 30.386 26.4397 30.6502 26.7164C30.7092 26.6889 30.7682 26.6615 30.8271 26.634C30.7098 26.4958 30.8278 26.4685 30.9457 26.4412C31.1224 26.4141 31.2702 26.2764 31.4464 26.4149C31.4758 26.4425 31.5643 26.3876 31.5939 26.3601C31.771 26.2502 31.9481 26.1403 32.1252 26.0303C32.2137 25.9755 32.3023 25.8929 32.4496 25.9209C32.5083 25.9486 32.5969 25.8936 32.6559 25.8662C33.0099 25.7016 33.3344 25.5368 33.6884 25.3723C33.9834 25.2351 34.3077 25.1531 34.5734 24.9607C34.9868 24.6582 35.4294 24.411 35.8721 24.1639C36.1966 23.9991 36.5212 23.8069 36.8459 23.6146C36.8754 23.5871 36.9049 23.5872 36.9638 23.5873C37.0227 23.5875 37.4648 23.5058 37.5238 23.4508C37.6715 23.3408 37.9366 23.3415 37.9374 23.0932C38.1434 23.1489 38.1146 22.9556 38.1738 22.8731C38.3507 22.8183 38.5569 22.8189 38.675 22.7364C38.9997 22.5165 39.2951 22.2689 39.5906 21.9938C39.7973 21.8288 39.9453 21.6085 40.1228 21.3882C40.2411 21.2506 40.3593 21.1405 40.5068 21.0581C40.6249 20.9756 40.7429 20.9207 40.861 20.8383C41.0086 20.7283 41.1564 20.5907 41.304 20.4807C41.5401 20.3434 41.7469 20.1784 41.7478 19.8749C41.9541 19.8478 42.131 19.8207 42.0727 19.6274C42.2499 19.4899 42.3682 19.3523 42.5158 19.2423C42.6044 19.1873 42.6929 19.1324 42.7521 19.0498C42.8407 18.9673 43.0177 18.8849 43.018 18.8021C43.0189 18.5538 43.2548 18.4441 43.4027 18.2789C43.7573 17.9212 44.1413 17.6187 44.4665 17.2608C44.9688 16.7655 45.4713 16.2425 45.9738 15.7196C46.3579 15.3619 46.742 15.0318 47.1261 14.6741C47.5397 14.289 47.924 13.8761 48.3378 13.4633C48.8694 13.0507 49.3716 12.583 49.8445 12.1152C49.7569 11.8943 49.6987 11.7009 49.6697 11.5629C49.5227 11.4798 49.3755 11.4518 49.3758 11.369C49.3762 11.2587 49.4649 11.1485 49.4947 11.0658C49.2594 10.9548 49.0535 10.8716 48.8182 10.7882C48.7592 10.8156 48.6412 10.8705 48.5232 10.9254C48.4947 10.6494 48.7598 10.65 48.9075 10.5125C48.731 10.4568 48.5542 10.484 48.4366 10.4009C48.3191 10.3178 48.2313 10.1521 48.1432 10.0691C47.9074 10.1237 47.701 10.1783 47.4947 10.233C47.3768 10.2602 47.2586 10.3703 47.1414 10.2044C47.1415 10.1769 47.0236 10.2041 46.9351 10.2314C46.8762 10.2313 46.8172 10.2588 46.7583 10.2586C46.7295 10.0654 47.0535 10.0386 46.966 9.81772C46.8774 9.87268 46.7888 9.9552 46.7001 10.0377C46.6709 9.98245 46.6416 9.92726 46.6712 9.8997C46.7604 9.65162 46.8202 9.40346 46.9388 9.15545C46.9684 9.12797 47.0568 9.10056 47.0864 9.07308C47.0573 8.96263 47.0577 8.85225 47.0284 8.76943C47.0288 8.65905 46.97 8.63127 46.8521 8.65859C46.7932 8.65844 46.7342 8.68585 46.7342 8.68585C46.6171 8.46486 46.4999 8.29899 46.4121 8.16082C46.501 7.96793 46.5605 7.80251 46.62 7.63712C46.385 7.47097 46.1793 7.30488 45.9737 7.1388C45.9148 7.13865 45.8264 7.16602 45.7379 7.19338C45.7381 7.1382 45.7383 7.08301 45.7385 7.02783C45.8577 6.61428 45.7704 6.31055 45.3293 6.11627C45.2704 6.08853 45.1531 5.97786 45.1826 5.95035C45.2716 5.75744 45.0951 5.7018 45.0071 5.59121C44.7139 5.20417 44.1841 5.09244 43.7709 5.33969C43.6824 5.39464 43.5645 5.39434 43.4762 5.39411C43.3875 5.47666 43.2987 5.61438 43.1806 5.69684C43.0626 5.77931 42.8858 5.77886 42.8273 5.66834C42.769 5.50264 42.6218 5.47467 42.5042 5.41918C42.6818 5.14373 43.0052 5.33771 43.1528 5.20013C43.1239 5.06211 43.0948 4.95167 43.0657 4.86882C42.9771 4.92377 42.918 4.9788 42.8296 5.00616C42.151 5.33549 41.5312 5.72017 40.97 6.18776C39.8475 7.15053 38.7544 8.14096 37.6612 9.13139C37.6021 9.18643 37.5431 9.21391 37.484 9.26895C37.4547 9.24124 37.4547 9.24124 37.4253 9.21361C37.4845 9.13094 37.5438 9.02079 37.6029 8.93812C38.0764 8.27722 38.5793 7.64389 39.0234 6.98286C39.3194 6.54217 39.586 6.10141 39.8527 5.63304C39.9711 5.44022 40.0603 5.21972 40.0316 4.97133C39.914 4.91584 39.826 4.83284 39.679 4.74969C39.7969 4.7224 39.8559 4.69496 39.9739 4.64009C39.7092 4.52904 39.5621 4.47348 39.3857 4.39024L39.3868 4.05915C39.2984 4.05893 39.2101 4.0587 39.1217 4.05847C39.2108 3.83797 39.2108 3.83797 39.6822 3.78401C39.4764 3.70071 39.3588 3.64522 39.2117 3.58966C39.3597 3.36931 39.1834 3.25849 38.9775 3.17519C38.8305 3.09203 38.6835 3.00888 38.566 2.9258C38.448 2.98068 38.33 3.03556 38.1825 3.09035C38.1834 2.84204 38.1841 2.6489 38.1847 2.45577C38.1856 2.20745 38.0389 2.04153 37.8333 1.87545C37.7452 1.79244 37.598 1.76448 37.4509 1.70891C37.4807 1.62621 37.5104 1.54352 37.5401 1.46082C37.4518 1.46059 37.3635 1.46037 37.275 1.48772C37.0999 1.01823 37.0705 0.990556 36.5697 1.01686C36.5403 1.01678 36.4813 1.01663 36.4815 0.989034C36.3936 0.850853 36.305 0.905809 36.187 0.960686C35.9805 1.07052 35.8034 1.18041 35.5968 1.31783C35.5381 1.23491 35.45 1.1795 35.3913 1.09658C35.2739 0.985905 35.186 0.875317 35.0685 0.764647C34.8914 0.874554 34.7145 0.929277 34.5668 1.03926C33.0907 2.0563 31.7614 3.21168 30.4321 4.36706C29.8411 4.91736 29.2207 5.46757 28.6299 5.99027C28.5708 6.0453 28.4823 6.07266 28.3643 6.15513C28.3353 5.98951 28.3063 5.87907 28.3066 5.7687C28.3368 5.57565 28.2488 5.46506 28.0723 5.40942C27.984 5.38159 27.9255 5.27108 27.8666 5.24334C27.8366 5.4364 27.8366 5.43639 27.5421 5.40804C27.6022 5.07711 27.6327 4.7461 27.6929 4.38756C27.6339 4.38741 27.5751 4.38726 27.5161 4.4147C27.4571 4.44214 27.398 4.49717 27.3687 4.46949C27.0744 4.35837 26.8676 4.55098 26.6317 4.63314C26.5137 4.68801 26.4251 4.77055 26.3073 4.77025C26.3374 4.57719 26.3969 4.38421 26.3681 4.21859C26.3398 3.88743 26.3704 3.52882 26.2832 3.1975L26.2833 3.16991C26.3131 3.05963 26.3723 2.97701 26.4022 2.86672C26.0785 2.75552 25.8131 2.86519 25.6067 2.91984C25.4598 2.83669 25.3128 2.75354 25.1658 2.67038C25.2838 2.6155 25.3722 2.58814 25.4312 2.5607C25.3139 2.42245 25.1966 2.28419 25.0792 2.17352C25.0204 2.11819 24.9028 2.0627 24.8144 2.06248C24.6967 2.06216 24.5492 2.11696 24.4312 2.17184C24.0477 2.3364 23.6642 2.52854 23.2806 2.72068C23.2226 2.47222 23.459 2.22451 23.1652 2.03061C23.2832 1.97573 23.4012 1.92086 23.4897 1.8659C23.4898 1.83832 23.4605 1.81065 23.4605 1.81065C23.1654 1.94784 22.8707 2.02985 22.605 2.19471C22.0444 2.49676 21.4837 2.82639 20.9525 3.12853C20.7754 3.23843 20.5989 3.18279 20.5106 3.12738C20.1582 2.85056 19.7754 2.82197 19.3042 2.79317C19.3939 2.40712 19.2479 2.04806 19.367 1.6621C19.4859 1.3589 19.3686 1.22065 19.0152 1.19214C18.9268 1.19191 18.8091 1.16402 18.7207 1.19138C18.6028 1.19107 18.5146 1.16325 18.4265 1.08025C18.2505 0.886656 18.0744 0.693064 17.8983 0.527064C17.8396 0.47173 17.7513 0.443909 17.663 0.44368C17.4861 0.470815 17.3094 0.470358 17.1324 0.552671C16.9259 0.634909 16.7193 0.772331 16.4832 0.909675C16.5427 0.744281 16.5725 0.633997 16.6024 0.496117C16.3074 0.6609 16.2767 1.01951 15.9815 1.21188C16.0115 1.04641 16.0708 0.908602 16.0715 0.743061C16.0719 0.605109 16.0134 0.467003 15.9551 0.301304C16.132 0.27417 16.3087 0.247038 16.4561 0.21983C16.2503 0.136525 16.2503 0.136525 16.0732 0.218839C15.7488 0.355953 15.4244 0.465478 15.1587 0.657927C14.4503 1.12513 13.7416 1.64754 13.033 2.14234C12.9149 2.2248 12.7967 2.33486 12.6196 2.47236C12.7669 2.44515 12.8258 2.4453 12.8847 2.44545C12.9729 2.50086 13.0612 2.52868 13.1788 2.58417C13.1196 2.66679 13.0603 2.777 12.9716 2.85955C12.7648 3.05214 12.4405 3.16167 12.3805 3.46501C12.3804 3.49261 12.351 3.49253 12.3216 3.49246C11.7607 3.84969 11.2291 4.26217 10.7856 4.75766C10.6674 4.89531 10.6376 4.978 10.6666 5.11604C11.2558 5.06238 11.3441 5.0902 11.4908 5.25612C11.3433 5.33852 11.1075 5.39309 11.0186 5.53081C10.9298 5.66854 10.8706 5.75116 10.6936 5.83347C10.5756 5.88835 10.5457 6.02623 10.6337 6.13682C10.6922 6.24733 10.8102 6.19246 10.8987 6.1375C11.0167 6.08263 11.1054 6.00009 11.2232 5.9728C11.2529 5.94529 11.341 6.0007 11.3705 6.00077C11.3408 6.05588 11.3406 6.11106 11.3111 6.13857C11.2519 6.1936 11.1635 6.22097 11.1044 6.276C11.0454 6.33102 10.9274 6.38589 10.9271 6.44108C10.956 6.63429 10.8086 6.6615 10.6906 6.71637C10.602 6.77133 10.5135 6.82628 10.4249 6.88123C10.4834 7.01934 10.5125 7.12978 10.5416 7.24022C10.512 7.26773 10.4823 7.32284 10.4823 7.35043C8.91603 8.8639 7.37944 10.3498 5.81326 11.8633C5.13368 12.4961 4.4541 13.1289 3.80388 13.7894C3.5084 14.0645 3.24229 14.3674 3.09371 14.7533C3.03433 14.8911 2.94541 15.0564 2.82722 15.1664C2.38392 15.6067 1.91117 16.047 1.46787 16.4873C1.20185 16.7625 0.935925 17.0101 0.757981 17.3684C0.698514 17.5338 0.668591 17.6716 0.815386 17.81C1.08064 17.7555 1.05063 17.9209 0.932057 18.1414ZM16.9909 24.6945C17.0493 24.8601 17.1077 24.9982 17.1367 25.1363C16.842 25.1631 16.8127 25.1354 16.9909 24.6945ZM47.9943 10.5653C47.9944 10.5377 48.0828 10.5104 48.1123 10.4829C48.1416 10.5381 48.2003 10.5934 48.2003 10.621C48.1705 10.7037 48.1114 10.7864 48.0522 10.8413C48.0227 10.8413 47.9934 10.8136 47.9934 10.8136C47.9937 10.7309 47.9645 10.648 47.9943 10.5653ZM46.3851 7.41578C46.2667 7.58102 46.5018 7.74717 46.2658 7.85694C46.178 7.69115 46.0901 7.55297 45.9729 7.38713C46.1201 7.38751 46.2084 7.41532 46.3851 7.41578ZM45.564 6.39279C45.5636 6.50315 45.5927 6.61359 45.5924 6.69636C45.5629 6.69629 45.5334 6.7238 45.5334 6.7238C45.4747 6.66847 45.3864 6.61306 45.2689 6.52998C45.3869 6.4751 45.446 6.44767 45.564 6.39279ZM45.2677 6.88866C45.3851 7.02692 45.414 7.16495 45.2665 7.24734C45.237 7.24726 45.2077 7.21959 45.1783 7.21952C45.1787 7.08157 45.2379 6.99894 45.2677 6.88866ZM44.1534 5.45104C44.36 5.34122 44.6249 5.36949 44.8307 5.50798C44.6833 5.53519 44.5359 5.56239 44.3885 5.6172C44.241 5.672 44.0936 5.7268 43.9755 5.80927C43.9461 5.7816 43.9167 5.75393 43.8874 5.72626C43.976 5.64372 44.0354 5.50592 44.1534 5.45104ZM41.6184 6.05148C41.707 5.99653 41.7955 5.94158 41.8252 5.88647C41.9735 5.58336 42.2972 5.63938 42.6216 5.52985C42.4439 5.8053 42.4427 6.16398 41.972 6.0248C41.9131 5.99706 41.854 6.07969 41.795 6.10712C41.4702 6.32701 41.1454 6.57449 40.8501 6.79445C40.8207 6.76678 40.8207 6.76678 40.7914 6.73912C41.0868 6.49156 41.3526 6.27152 41.6184 6.05148ZM38.6471 22.2673C38.647 22.3225 38.6467 22.3776 38.6467 22.4053C38.6167 22.5431 38.558 22.4878 38.4109 22.4322C38.4996 22.3497 38.5586 22.3222 38.6471 22.2673ZM39.7371 4.97057C39.9131 5.19175 39.883 5.38481 39.5282 5.77016C39.6175 5.52207 39.6773 5.24632 39.7371 4.97057ZM38.8006 3.22991C38.8595 3.23006 38.8887 3.31291 38.9475 3.34065C38.8885 3.36809 38.8293 3.45071 38.7998 3.45063C38.7116 3.42282 38.6528 3.36748 38.5058 3.31192C38.6532 3.25712 38.7122 3.22968 38.8006 3.22991ZM37.8028 2.15128C37.9796 2.15174 37.9497 2.28961 37.9198 2.42749L37.6547 2.4268C37.5669 2.26103 37.6262 2.15082 37.8028 2.15128ZM37.624 2.78541L37.6534 2.78549C37.6238 2.84059 37.6235 2.92336 37.5939 2.97846C37.5644 2.97839 37.5644 2.97839 37.535 2.95073C37.5646 2.92321 37.5943 2.84051 37.624 2.78541ZM36.6282 1.15496C36.6277 1.29292 36.6568 1.40336 36.6271 1.45846C36.5087 1.62369 36.3318 1.70601 36.0373 1.67766C36.2441 1.48506 36.4214 1.34757 36.6282 1.15496ZM34.8022 1.12265C35.0086 1.068 35.1853 1.06845 35.3916 1.0414C35.3912 1.15176 35.4203 1.2622 35.4197 1.40015C35.3903 1.40008 35.3607 1.42759 35.3607 1.42759C35.3315 1.37233 35.3021 1.34467 35.2435 1.26174C35.2137 1.34444 35.1841 1.39954 35.1545 1.45465C34.9485 1.42652 34.7425 1.37081 34.5364 1.34269C34.5663 1.2048 34.6843 1.14993 34.8022 1.12265ZM34.6536 1.50854C34.6238 1.61882 34.6529 1.72925 34.5939 1.7567C34.5052 1.83924 34.4166 1.92179 34.2987 1.94907C33.8858 2.11355 33.5609 2.38862 33.2359 2.66368C33.0883 2.77366 32.9407 2.85606 32.7931 2.96603C32.7637 2.93837 32.7638 2.91078 32.7345 2.88311C33.3546 2.41567 33.8865 1.89282 34.6536 1.50854ZM31.7299 3.8186C31.9076 3.54315 32.1732 3.3783 32.4683 3.21352C32.2906 3.48897 32.0248 3.709 31.7297 3.87379C31.7297 3.87379 31.7004 3.84612 31.7299 3.8186ZM31.7001 3.9013C31.641 3.98392 31.5818 4.03895 31.4635 4.1766C31.5527 3.95611 31.5527 3.95611 31.7001 3.9013ZM28.1474 26.5167C27.9996 26.6543 27.9996 26.6543 27.7345 26.6812C27.7346 26.6536 27.7052 26.6259 27.7053 26.5984C27.8526 26.5711 27.9706 26.5439 28.1474 26.5167ZM28.0423 5.57488C28.1007 5.71299 28.0414 5.8232 27.9235 5.85048C27.7761 5.8777 27.629 5.84972 27.5708 5.65644C27.7475 5.6293 27.8949 5.60209 28.0423 5.57488ZM25.7242 3.00292C25.8424 2.92045 25.9898 2.86565 26.1076 2.86596C26.2549 2.86634 26.2544 3.00429 26.2835 3.11473C26.1358 3.2523 25.9589 3.27944 25.7824 3.22379C25.6942 3.16839 25.6358 3.03028 25.7242 3.00292ZM24.5868 25.5694C24.5573 25.5969 24.5278 25.5968 24.4984 25.5967C24.4689 25.5967 24.4395 25.569 24.3808 25.5137C24.4693 25.4863 24.4987 25.4864 24.5282 25.4864C24.5575 25.5141 24.5868 25.5694 24.5868 25.5694ZM24.4585 2.8065C24.4583 2.86168 24.4876 2.88936 24.4875 2.91694C24.4285 2.97197 24.34 2.99934 24.2809 3.05437C24.2516 3.0267 24.2516 2.99911 24.2223 2.97144C24.2814 2.91641 24.3699 2.86146 24.4585 2.8065ZM23.6436 25.7877C23.6731 25.7602 23.7319 25.7879 23.8204 25.7606C23.7612 25.8432 23.7316 25.8707 23.7021 25.8982C23.6726 25.9257 23.6137 25.898 23.5253 25.8977C23.5845 25.8427 23.614 25.8152 23.6436 25.7877ZM22.5733 2.85681C22.5734 2.82922 22.5735 2.80162 22.5736 2.77404C22.6325 2.77419 22.6914 2.77434 22.7503 2.77449C22.7503 2.77449 22.7502 2.80208 22.7501 2.82967L22.5733 2.85681ZM23.0761 2.25111C23.1055 2.25118 23.135 2.25126 23.1644 2.27892C23.1345 2.41681 23.1045 2.55468 23.0743 2.77533C22.8984 2.52656 23.0461 2.41658 23.0761 2.25111ZM22.8109 2.27801C22.9875 2.30606 22.9576 2.44394 22.8689 2.55407C22.7511 2.55377 22.6333 2.55346 22.4861 2.52549C22.5456 2.36009 22.6343 2.24997 22.8109 2.27801ZM22.3375 2.91138C22.3078 2.96648 22.3076 3.04926 22.2487 3.04911C21.8061 3.26868 21.3929 3.51594 20.9504 3.73552C21.3051 3.35017 22.1018 2.91077 22.3375 2.91138ZM20.1579 2.93332C20.2462 2.96115 20.3049 3.01648 20.3932 3.0443C20.393 3.07189 20.393 3.09948 20.3635 3.0994C20.3046 3.09925 20.2751 3.09918 20.2164 3.07143C20.1575 3.04369 20.1282 3.01602 20.0989 2.96077C20.1284 2.96084 20.1284 2.93325 20.1579 2.93332ZM19.9521 2.82243C19.9521 2.85002 19.9519 2.87761 19.9518 2.9052C19.8632 2.98774 19.7162 2.90459 19.5985 2.8767C19.7163 2.877 19.8342 2.84972 19.9521 2.82243ZM18.5479 25.8849C18.6659 25.83 18.725 25.7749 18.8135 25.72C18.8428 25.7752 18.8722 25.803 18.872 25.8305C18.8129 25.9131 18.7539 25.9406 18.5479 25.8849ZM19.1622 1.27529C19.2504 1.3307 19.2503 1.35829 19.1611 1.60638C18.9256 1.55059 18.5718 1.66004 18.4848 1.27354C18.7504 1.10868 18.9861 1.10929 19.1622 1.27529ZM17.4608 25.1095C17.4021 25.0541 17.3727 25.0265 17.314 24.9712C17.3435 24.9437 17.3732 24.8886 17.3731 24.9161C17.4318 24.9439 17.4906 24.9992 17.5494 25.027L17.4608 25.1095ZM17.4554 0.857009C17.3958 1.04999 17.2781 1.02209 17.1605 0.939021C17.249 0.911655 17.3375 0.884296 17.4554 0.857009ZM17.3368 1.04984C17.3366 1.13261 17.3365 1.1602 17.3364 1.18779C17.2774 1.21523 17.1889 1.24259 17.1299 1.27003C17.13 1.24244 17.1007 1.21478 17.1008 1.18718C17.1598 1.15975 17.2189 1.10472 17.3368 1.04984ZM15.836 0.68727C15.836 0.68727 15.8655 0.659757 15.8655 0.687346L15.8948 0.715011C15.8652 0.770118 15.865 0.825299 15.8353 0.880406C15.8059 0.88033 15.8059 0.88033 15.7765 0.880254C15.8062 0.797557 15.8359 0.742451 15.836 0.68727ZM15.6003 0.714249C15.6296 0.741918 15.6294 0.824689 15.5999 0.824613C15.4818 0.90708 15.4231 0.851747 15.335 0.768747C15.4239 0.631023 15.5123 0.60366 15.6003 0.714249ZM13.8582 1.97892C14.2125 1.73152 14.5376 1.42887 15.0391 1.18185C15.0092 1.29213 15.0091 1.34731 14.9796 1.34724C14.7139 1.53969 14.4186 1.75965 14.1235 1.92443C14.0644 1.97946 13.9466 1.97916 13.8582 2.00652C13.8287 2.00644 13.8288 1.97885 13.8582 1.97892ZM13.8286 2.03403C13.8284 2.08922 13.8283 2.1444 13.7988 2.14432C13.6217 2.25422 13.4447 2.33654 13.2677 2.41885C13.3861 2.22603 13.5633 2.08853 13.8286 2.03403ZM12.9735 2.30773C13.0622 2.22518 13.1508 2.14264 13.2395 2.03251C13.2095 2.22557 13.2095 2.22557 12.9735 2.30773ZM2.33465 21.4008C2.21609 21.6211 2.12839 21.4278 2.01058 21.4275C2.09931 21.3173 2.18796 21.2348 2.33465 21.4008ZM1.63449 19.44L1.6933 19.4677C1.6932 19.4953 1.66356 19.5504 1.63402 19.5779C1.57521 19.5502 1.54584 19.5225 1.51639 19.5224C1.5754 19.495 1.60494 19.4675 1.63449 19.44ZM39.6513 4.22538C39.6808 4.22546 39.7103 4.22554 39.7396 4.22561C39.7399 4.17043 39.7106 4.11517 39.7108 4.05999C39.6813 4.05991 39.6813 4.05991 39.6519 4.05984C39.6223 4.11494 39.6515 4.1702 39.6513 4.22538ZM48.6454 9.62893C48.616 9.60123 48.6162 9.57367 48.5868 9.54596C48.5574 9.54588 48.5278 9.57344 48.4984 9.57337C48.5277 9.601 48.5276 9.62863 48.5276 9.62863C48.5864 9.65634 48.616 9.62886 48.6454 9.62893ZM43.3899 4.78688C43.39 4.7593 43.39 4.7593 43.3899 4.78688C43.2721 4.78658 43.1838 4.78635 43.0659 4.78605C43.1838 4.78635 43.3016 4.78665 43.3899 4.78688Z" fill="#2494E4" fill-opacity="0.1"/>
</g>
<defs>
<clipPath id="clip0_3905_93">
<rect width="49.48" height="27.4043" fill="white" transform="translate(0.622559 0.116211)"/>
</clipPath>
</defs>
</svg>
