<svg width="41" height="41" viewBox="0 0 41 41" fill="none" xmlns="http://www.w3.org/2000/svg">
<path d="M33.9657 3.39323H0.632324V36.7266H40.6323V3.39323H33.9657ZM5.96566 35.3932H1.96566V31.3932H5.96566V35.3932ZM5.96566 30.0599H1.96566V26.0599H5.96566V30.0599ZM5.96566 24.7266H1.96566V20.7266H5.96566V24.7266ZM5.96566 19.3932H1.96566V15.3932H5.96566V19.3932ZM5.96566 14.0599H1.96566V10.0599H5.96566V14.0599ZM5.96566 8.72656H1.96566V4.72656H5.96566V8.72656ZM33.9657 35.3932H7.29899V4.72656H33.9657V35.3932ZM39.299 35.3932H35.299V31.3932H39.299V35.3932ZM39.299 30.0599H35.299V26.0599H39.299V30.0599ZM39.299 24.7266H35.299V20.7266H39.299V24.7266ZM39.299 19.3932H35.299V15.3932H39.299V19.3932ZM39.299 14.0599H35.299V10.0599H39.299V14.0599ZM39.299 8.72656H35.299V4.72656H39.299V8.72656ZM25.8323 19.7932C25.8323 19.6154 25.7879 19.5266 25.699 19.5266L16.3657 14.1932C16.1879 14.1043 16.0101 14.0821 15.8323 14.1266C15.6545 14.171 15.5212 14.2599 15.4323 14.3932C15.3434 14.5266 15.299 14.6377 15.299 14.7266V25.3932C15.299 25.6599 15.4101 25.8599 15.6323 25.9932C15.8545 26.1266 16.099 26.1043 16.3657 25.9266L25.699 20.5932C25.7879 20.5043 25.8545 20.371 25.899 20.1932C25.9434 20.0155 25.9212 19.8821 25.8323 19.7932ZM16.6323 24.1932V15.9266L23.9657 20.0599L16.6323 24.1932Z" fill="#FF2E2E"/>
</svg>
