<svg width="64" height="35" viewBox="0 0 64 35" fill="none" xmlns="http://www.w3.org/2000/svg">
<g clip-path="url(#clip0_3905_99)">
<path d="M6.72183 27.7138C6.72171 27.7489 6.72171 27.7489 6.72183 27.7138V27.7138ZM1.01581 23.0044C0.8275 23.3893 0.751389 23.7745 1.04926 24.1605C0.97398 24.3005 0.89882 24.4055 0.786143 24.5453C0.598192 24.8251 0.634638 25.1055 0.745871 25.386C0.783035 25.4562 0.932264 25.5617 0.969788 25.5268C1.30674 25.4226 1.75505 25.5638 1.98065 25.2141C2.09273 25.2493 2.1674 25.2846 2.27948 25.3199C2.01636 25.7046 1.52922 25.9837 1.71441 26.5097C1.93869 26.5453 2.12557 26.5809 2.31256 26.5813C2.42404 26.7918 2.46084 26.967 2.34805 27.142C2.34781 27.2121 2.31005 27.317 2.34733 27.3521C2.49633 27.5277 2.68272 27.7034 2.86924 27.844C2.9812 27.9144 3.16783 28.0199 3.28015 27.9852C4.17798 27.9175 5.11331 27.8147 6.01112 27.747C6.23564 27.7126 6.46004 27.7131 6.68443 27.7137C6.64787 27.4684 6.83499 27.4338 7.02199 27.4343C7.05938 27.4344 7.09642 27.5396 7.17086 27.6449C7.02114 27.6796 6.87142 27.7142 6.68431 27.7488C6.83403 27.7141 7.02114 27.6796 7.17086 27.6449L7.99364 27.647C7.80628 27.7517 7.73137 27.7865 7.61905 27.8212C7.69373 27.8565 7.76841 27.8917 7.84308 27.927C7.76697 28.3122 7.65334 28.7322 7.98885 29.0484C7.68845 29.3981 7.61246 29.7482 7.79813 30.134C8.35924 30.1005 8.73324 30.1015 8.99467 30.2072C8.95703 30.2772 8.9194 30.3472 8.88176 30.4172C8.844 30.5221 8.76896 30.592 8.7312 30.697C8.61816 30.9419 8.69248 31.0823 8.99156 31.1181C9.02895 31.1182 9.06635 31.1183 9.14116 31.1185C9.36555 31.1191 9.43999 31.2244 9.40187 31.4345C9.36411 31.5395 9.32624 31.6796 9.40092 31.7147C9.54991 31.8904 9.73619 32.101 9.96022 32.2067C10.1469 32.3123 10.3712 32.3129 10.5958 32.2785C11.4189 32.1754 12.2047 32.0374 13.028 31.8994C13.4397 31.8303 13.8515 31.6913 14.2621 31.9375C14.2625 31.8325 14.3001 31.7625 14.3002 31.7275C14.4875 31.6579 14.7119 31.6234 14.8992 31.5538C15.5732 31.3103 16.2472 31.0668 16.9214 30.7883C17.9699 30.4057 19.0185 29.9879 20.0671 29.5702C20.3666 29.4659 20.7039 29.2915 20.9662 29.1171C21.2662 28.9077 21.603 28.8385 22.0145 28.8045C21.9767 28.9095 21.9765 28.9795 21.939 29.0145C21.7886 29.2243 21.5636 29.4339 21.4505 29.6789C21.3374 29.9589 21.3362 30.2742 21.2978 30.5894C21.2594 30.8696 21.1837 31.1497 21.1453 31.4299C21.1074 31.5699 21.1069 31.7451 21.1064 31.8853C21.3679 31.956 21.5922 31.9916 21.8912 32.0624C21.8906 32.2376 21.8899 32.4127 21.8519 32.5879C21.8138 32.7979 21.8882 32.9383 22.0749 33.0088C22.3365 33.0796 22.3359 33.2547 22.2977 33.4649C22.2977 33.4649 22.2978 33.4298 22.3352 33.4299C22.4102 33.3951 22.4851 33.3603 22.5227 33.3253C22.5225 33.3604 22.5224 33.3954 22.5223 33.4305C22.4475 33.4303 22.3726 33.43 22.2977 33.4649C22.335 33.5 22.4097 33.5353 22.4095 33.6053C22.5569 34.2363 23.0429 34.3077 23.5664 34.309C24.2398 34.2757 24.9131 34.2424 25.5864 34.2092C26.1849 34.1756 26.7842 33.897 27.4197 33.9686C27.532 33.9689 27.6444 33.8992 27.7567 33.8644C27.7568 33.8294 27.7568 33.8294 27.757 33.7943L27.4577 33.7935C27.4579 33.7585 27.4579 33.7586 27.458 33.7235C27.7575 33.6542 28.0943 33.55 28.3938 33.4806C28.2438 33.6204 28.0567 33.6199 27.9812 33.83C28.0936 33.7952 28.1684 33.7954 28.2433 33.7606C28.8049 33.5869 29.3666 33.3781 29.8907 33.2043C30.3026 33.0652 30.7146 32.8911 31.0893 32.6818C31.8012 32.2983 32.6249 32.0552 33.2996 31.6015C33.4869 31.4969 33.6361 31.6023 33.6355 31.8126C33.6351 31.9176 33.5974 32.0227 33.5596 32.1277L33.597 32.1278C33.6724 31.9528 33.7477 31.8128 33.8605 31.638C33.935 31.7083 34.0095 31.7784 34.0842 31.8487C34.2342 31.709 34.3844 31.5342 34.4971 31.3944C34.5341 31.4996 34.571 31.6398 34.5335 31.6747C34.3461 31.7793 34.4573 32.095 34.1953 32.1293C34.1947 32.3045 34.2315 32.5148 34.2307 32.725C34.3807 32.6203 34.4932 32.5155 34.6433 32.3757C34.6794 32.7612 34.4918 32.9359 34.3418 33.0756C34.4158 33.2861 34.5273 33.4965 34.5641 33.6718C34.6 34.0923 34.6374 34.1275 35.0487 34.1286C35.1609 34.1289 35.2732 34.0941 35.4228 34.0945C35.535 34.0947 35.6848 34.0601 35.7593 34.1304C36.0206 34.2711 36.2825 34.2368 36.582 34.1675C36.7318 34.0978 36.8816 34.0281 37.0314 33.9935C37.256 33.924 37.4804 33.9246 37.6667 34.1003C37.704 34.1354 37.8538 34.1007 37.9658 34.1361C37.929 33.9959 37.8918 33.9257 37.8546 33.8555C38.4166 33.5416 38.4166 33.5416 38.752 33.8929C38.827 33.858 38.9019 33.8232 38.9768 33.7883C38.8278 33.6128 38.9776 33.5782 39.1273 33.5435C39.3517 33.5091 39.5393 33.3343 39.7631 33.5101C39.8004 33.5452 39.9128 33.4754 39.9504 33.4405C40.1753 33.301 40.4001 33.1614 40.625 33.0218C40.7375 32.9521 40.85 32.8472 41.0369 32.8828C41.1115 32.918 41.224 32.8482 41.2989 32.8134C41.7485 32.6043 42.1605 32.3951 42.61 32.1862C42.9847 32.012 43.3963 31.9079 43.7338 31.6635C44.2588 31.2795 44.8207 30.9656 45.3828 30.6518C45.795 30.4426 46.2072 30.1984 46.6194 29.9542C46.6569 29.9193 46.6943 29.9194 46.7691 29.9196C46.844 29.9198 47.4053 29.8161 47.4803 29.7463C47.6678 29.6066 48.0044 29.6075 48.0054 29.2922C48.267 29.363 48.2305 29.1175 48.3056 29.0127C48.5302 28.9432 48.7921 28.9438 48.942 28.8392C49.3544 28.5599 49.7294 28.2456 50.1046 27.8962C50.3671 27.6867 50.5551 27.4069 50.7804 27.1272C50.9306 26.9524 51.0807 26.8126 51.2681 26.7081C51.418 26.6033 51.5678 26.5336 51.7178 26.4289C51.9053 26.2892 52.0929 26.1146 52.2803 25.9749C52.5801 25.8005 52.8427 25.5909 52.8439 25.2056C53.1059 25.1712 53.3304 25.1368 53.2564 24.8913C53.4814 24.7167 53.6316 24.542 53.8191 24.4023C53.9316 24.3325 54.044 24.2627 54.1191 24.1578C54.2317 24.0531 54.4564 23.9485 54.4568 23.8434C54.4579 23.5281 54.7575 23.3887 54.9453 23.1789C55.3956 22.7247 55.8832 22.3406 56.2961 21.8862C56.934 21.2572 57.572 20.5932 58.2101 19.9292C58.6979 19.475 59.1855 19.0558 59.6733 18.6016C60.1985 18.1125 60.6865 17.5882 61.2119 17.064C61.8869 16.5402 62.5247 15.9463 63.1251 15.3523C63.0139 15.0718 62.9399 14.8262 62.9031 14.651C62.7165 14.5454 62.5296 14.5099 62.53 14.4048C62.5305 14.2646 62.6431 14.1248 62.6809 14.0198C62.3822 13.8788 62.1207 13.7731 61.8219 13.6673C61.7469 13.7021 61.5971 13.7717 61.4473 13.8414C61.4111 13.4909 61.7477 13.4918 61.9353 13.3172C61.7112 13.2465 61.4866 13.281 61.3374 13.1754C61.1881 13.07 61.0767 12.8595 60.9649 12.7541C60.6654 12.8234 60.4034 12.8928 60.1413 12.9622C59.9916 12.9968 59.8416 13.1366 59.6927 12.926C59.6928 12.891 59.5431 12.9256 59.4307 12.9603C59.3559 12.9601 59.281 12.995 59.2062 12.9948C59.1697 12.7495 59.5812 12.7154 59.47 12.4349C59.3575 12.5047 59.245 12.6095 59.1324 12.7143C59.0952 12.6441 59.0581 12.574 59.0956 12.539C59.2089 12.224 59.2848 11.9089 59.4354 11.594C59.473 11.5591 59.5853 11.5243 59.6228 11.4894C59.5859 11.3491 59.5864 11.209 59.5493 11.1038C59.5497 10.9636 59.4751 10.9284 59.3254 10.9631C59.2506 10.9629 59.1757 10.9977 59.1757 10.9977C59.027 10.7171 58.8781 10.5064 58.7666 10.331C58.8796 10.086 58.9551 9.876 59.0307 9.66598C58.7322 9.455 58.4711 9.2441 58.21 9.03322C58.1352 9.03302 58.0229 9.06777 57.9105 9.10251C57.9108 9.03244 57.911 8.96237 57.9113 8.8923C58.0627 8.36717 57.9518 7.9815 57.3917 7.7348C57.3169 7.69957 57.1679 7.55904 57.2054 7.52411C57.3184 7.27915 57.0942 7.2085 56.9825 7.06807C56.6103 6.57661 55.9375 6.43473 55.4128 6.74869C55.3004 6.81847 55.1508 6.81808 55.0386 6.81779C54.926 6.92261 54.8132 7.09749 54.6633 7.20221C54.5134 7.30693 54.2889 7.30635 54.2146 7.16602C54.1406 6.95561 53.9537 6.92009 53.8044 6.84963C54.0299 6.49986 54.4405 6.74618 54.628 6.57148C54.5913 6.39621 54.5544 6.25598 54.5173 6.15078C54.4048 6.22056 54.3298 6.29044 54.2175 6.32518C53.3559 6.74336 52.5688 7.23182 51.8563 7.82558C50.4309 9.04811 49.0428 10.3058 47.6547 11.5634C47.5797 11.6333 47.5047 11.6682 47.4297 11.7381C47.3924 11.7029 47.3924 11.7029 47.3551 11.6678C47.4303 11.5628 47.5056 11.423 47.5807 11.318C48.182 10.4788 48.8205 9.67458 49.3844 8.8352C49.7603 8.2756 50.0989 7.71592 50.4375 7.12119C50.5879 6.87634 50.701 6.59635 50.6647 6.28094C50.5154 6.21049 50.4035 6.10509 50.2169 5.9995C50.3666 5.96485 50.4415 5.93001 50.5913 5.86033C50.2552 5.71932 50.0685 5.64877 49.8444 5.54308L49.8459 5.12266C49.7337 5.12237 49.6215 5.12208 49.5093 5.12179C49.6224 4.8418 49.6224 4.8418 50.221 4.77328C49.9597 4.6675 49.8103 4.59704 49.6236 4.52649C49.8115 4.24669 49.5876 4.10597 49.3261 4.0002C49.1395 3.8946 48.9528 3.78901 48.8036 3.68352C48.6538 3.75321 48.5039 3.82289 48.3167 3.89247C48.3178 3.57716 48.3186 3.33191 48.3195 3.08667C48.3206 2.77136 48.1343 2.56066 47.8732 2.34978C47.7614 2.24438 47.5744 2.20886 47.3877 2.13831C47.4255 2.0333 47.4633 1.92829 47.501 1.82328C47.3888 1.82299 47.2766 1.8227 47.1643 1.85744C46.942 1.26127 46.9047 1.22614 46.2687 1.25953C46.2313 1.25944 46.1565 1.25924 46.1567 1.2242C46.0451 1.04874 45.9326 1.11852 45.7828 1.18821C45.5206 1.32767 45.2956 1.46722 45.0333 1.64171C44.9588 1.53642 44.8468 1.46606 44.7724 1.36077C44.6233 1.22023 44.5116 1.0798 44.3625 0.939275C44.1376 1.07884 43.913 1.14832 43.7255 1.28798C41.8511 2.57943 40.1631 4.04654 38.4751 5.51364C37.7247 6.21241 36.9369 6.91107 36.1866 7.5748C36.1116 7.64467 35.9993 7.67942 35.8494 7.78414C35.8127 7.57383 35.7757 7.43359 35.7762 7.29345C35.8145 7.04831 35.7028 6.90788 35.4786 6.83723C35.3666 6.8019 35.2922 6.66157 35.2175 6.62634C35.1793 6.87149 35.1793 6.87149 34.8054 6.83548C34.8817 6.41526 34.9205 5.99494 34.9968 5.53968C34.922 5.53948 34.8473 5.53929 34.7724 5.57414C34.6975 5.60897 34.6224 5.67885 34.5852 5.64371C34.2116 5.50261 33.9489 5.74718 33.6494 5.85151C33.4995 5.92119 33.387 6.026 33.2374 6.02561C33.2757 5.78047 33.3513 5.53541 33.3146 5.32512C33.2787 4.9046 33.3176 4.44924 33.2069 4.02853L33.207 3.9935C33.2448 3.85345 33.32 3.74855 33.3579 3.6085C32.9469 3.46729 32.6099 3.60656 32.3478 3.67595C32.1613 3.57036 31.9746 3.46478 31.788 3.35919C31.9378 3.2895 32.0501 3.25476 32.125 3.21992C31.9761 3.04436 31.827 2.8688 31.678 2.72828C31.6033 2.65801 31.454 2.58756 31.3418 2.58727C31.1922 2.58687 31.005 2.65646 30.8552 2.72614C30.3682 2.93509 29.8812 3.17908 29.3941 3.42306C29.3205 3.10756 29.6207 2.79302 29.2476 2.5468C29.3974 2.47712 29.5473 2.40744 29.6597 2.33766C29.6598 2.30263 29.6225 2.26749 29.6225 2.26749C29.2479 2.4417 28.8736 2.54584 28.5363 2.75518C27.8244 3.13872 27.1123 3.55729 26.4378 3.94094C26.213 4.08049 25.9888 4.00984 25.8768 3.93948C25.4293 3.58797 24.9432 3.55168 24.3449 3.5151C24.4588 3.0249 24.2734 2.56896 24.4247 2.07886C24.5756 1.69386 24.4266 1.5183 23.9779 1.48211C23.8657 1.48182 23.7162 1.4464 23.6039 1.48114C23.4543 1.48075 23.3423 1.44542 23.2304 1.34003C23.0068 1.0942 22.7833 0.848379 22.5596 0.637591C22.4851 0.567327 22.3729 0.532 22.2608 0.53171C22.0363 0.566166 21.8118 0.565585 21.5871 0.670107C21.3249 0.774533 21.0626 0.949032 20.7627 1.12343C20.8382 0.913414 20.8761 0.773374 20.9141 0.598294C20.5395 0.807536 20.5005 1.2629 20.1257 1.50717C20.1637 1.29706 20.2391 1.12207 20.2399 0.911865C20.2405 0.736692 20.1663 0.561325 20.0922 0.35092C20.3168 0.316464 20.5412 0.282012 20.7283 0.247463C20.467 0.141681 20.467 0.141681 20.2421 0.246204C19.8302 0.420313 19.4183 0.559388 19.0808 0.803761C18.1813 1.39702 17.2814 2.06037 16.3817 2.68867C16.2317 2.79339 16.0816 2.93314 15.8567 3.10774C16.0437 3.07318 16.1185 3.07338 16.1934 3.07357C16.3053 3.14393 16.4174 3.17926 16.5668 3.24972C16.4916 3.35462 16.4164 3.49457 16.3038 3.59939C16.0411 3.84395 15.6292 3.98303 15.5532 4.36822C15.553 4.40325 15.5157 4.40316 15.4783 4.40306C14.7661 4.85668 14.0911 5.38046 13.5279 6.00962C13.3778 6.18442 13.34 6.28942 13.3768 6.4647C14.125 6.39656 14.2371 6.43188 14.4234 6.64257C14.2361 6.7472 13.9366 6.8165 13.8238 6.99138C13.711 7.16627 13.6358 7.27117 13.4111 7.37569C13.2612 7.44538 13.2232 7.62046 13.335 7.76089C13.4093 7.90122 13.5591 7.83154 13.6716 7.76176C13.8214 7.69208 13.934 7.58727 14.0836 7.55261C14.1212 7.51768 14.2332 7.58804 14.2706 7.58814C14.2329 7.65811 14.2327 7.72818 14.1952 7.76311C14.1201 7.83299 14.0077 7.86774 13.9327 7.93762C13.8577 8.00749 13.7079 8.07717 13.7076 8.14724C13.7442 8.39258 13.5571 8.42713 13.4073 8.49681C13.2948 8.56659 13.1824 8.63637 13.0699 8.70615C13.1442 8.88152 13.1811 9.02175 13.218 9.162C13.1804 9.19693 13.1428 9.26691 13.1427 9.30194C11.1539 11.2238 9.20273 13.1106 7.21399 15.0324C6.35105 15.836 5.48812 16.6395 4.66246 17.4782C4.28727 17.8276 3.94936 18.2121 3.76069 18.7022C3.68529 18.8771 3.57237 19.087 3.4223 19.2267C2.8594 19.7858 2.25909 20.3449 1.69619 20.904C1.3584 21.2534 1.02072 21.5679 0.794768 22.0228C0.719256 22.2328 0.68126 22.4079 0.86766 22.5835C1.20449 22.5143 1.16637 22.7244 1.01581 23.0044ZM21.4075 31.3255C21.4815 31.5358 21.5558 31.7112 21.5926 31.8865C21.2184 31.9205 21.1812 31.8854 21.4075 31.3255ZM60.7757 13.3842C60.7758 13.3491 60.8881 13.3144 60.9256 13.2795C60.9628 13.3497 61.0374 13.4199 61.0373 13.455C60.9995 13.56 60.9244 13.6649 60.8493 13.7347C60.8118 13.7346 60.7746 13.6995 60.7746 13.6995C60.7749 13.5945 60.7379 13.4892 60.7757 13.3842ZM58.7324 9.38492C58.5821 9.59474 58.8805 9.80573 58.5809 9.94511C58.4693 9.73459 58.3578 9.55913 58.2089 9.34854C58.3959 9.34902 58.508 9.38434 58.7324 9.38492ZM57.6897 8.08593C57.6892 8.22606 57.7261 8.3663 57.7257 8.4714C57.6883 8.4713 57.6508 8.50625 57.6508 8.50625C57.5763 8.43598 57.4643 8.36562 57.315 8.26013C57.4648 8.19044 57.5399 8.15561 57.6897 8.08593ZM57.3135 8.71558C57.4625 8.89114 57.4993 9.06642 57.3119 9.17104C57.2745 9.17094 57.2373 9.1358 57.1999 9.13571C57.2005 8.96054 57.2756 8.85562 57.3135 8.71558ZM55.8985 6.89009C56.1609 6.75063 56.4973 6.78653 56.7585 6.96239C56.5714 6.99694 56.3843 7.03148 56.197 7.10107C56.0098 7.17066 55.8226 7.24024 55.6726 7.34496C55.6353 7.30983 55.598 7.2747 55.5608 7.23957C55.6733 7.13476 55.7487 6.95977 55.8985 6.89009ZM52.6796 7.65253C52.792 7.58275 52.9044 7.51297 52.9421 7.443C53.1304 7.0581 53.5415 7.12924 53.9534 6.99016C53.7278 7.33993 53.7263 7.79538 53.1285 7.61865C53.0538 7.58343 52.9787 7.68835 52.9038 7.72318C52.4914 8.0024 52.079 8.31665 51.704 8.59596C51.6667 8.56082 51.6667 8.56082 51.6294 8.5257C52.0045 8.21134 52.3421 7.93193 52.6796 7.65253ZM48.9066 28.2434C48.9064 28.3135 48.9061 28.3836 48.906 28.4187C48.8681 28.5937 48.7934 28.5235 48.6067 28.4529C48.7193 28.3481 48.7942 28.3132 48.9066 28.2434ZM50.2907 6.27998C50.5142 6.56084 50.4759 6.80598 50.0255 7.29531C50.1388 6.98028 50.2147 6.63013 50.2907 6.27998ZM49.1015 4.06968C49.1763 4.06987 49.2133 4.17508 49.2881 4.2103C49.2131 4.24515 49.1379 4.35005 49.1005 4.34996C48.9885 4.31464 48.9139 4.24437 48.7271 4.17382C48.9144 4.10423 48.9893 4.06939 49.1015 4.06968ZM47.8345 2.70003C48.059 2.70061 48.021 2.87568 47.983 3.05076L47.6464 3.04989C47.5349 2.83939 47.6102 2.69945 47.8345 2.70003ZM47.6075 3.50525L47.6448 3.50535C47.6072 3.57532 47.6068 3.68042 47.5692 3.75039C47.5318 3.7503 47.5318 3.7503 47.4945 3.71517C47.532 3.68023 47.5698 3.57522 47.6075 3.50525ZM46.343 1.4349C46.3424 1.61008 46.3793 1.75031 46.3416 1.82029C46.1913 2.0301 45.9666 2.13463 45.5927 2.09862C45.8553 1.85406 46.0803 1.67947 46.343 1.4349ZM44.0243 1.39386C44.2864 1.32447 44.5107 1.32505 44.7727 1.2907C44.7722 1.43084 44.8091 1.57107 44.8085 1.74624C44.7711 1.74615 44.7336 1.78108 44.7336 1.78108C44.6964 1.71091 44.6591 1.67579 44.5847 1.57049C44.5469 1.6755 44.5093 1.74547 44.4717 1.81544C44.21 1.77973 43.9485 1.70898 43.6868 1.67327C43.7248 1.49819 43.8746 1.42851 44.0243 1.39386ZM43.8357 1.88387C43.7978 2.02391 43.8347 2.16414 43.7598 2.19899C43.6472 2.3038 43.5347 2.40862 43.3849 2.44326C42.8606 2.65212 42.4481 3.0014 42.0354 3.35068C41.848 3.49034 41.6606 3.59496 41.4732 3.73461C41.4358 3.69948 41.4359 3.66445 41.3987 3.62932C42.1861 3.03576 42.8616 2.37184 43.8357 1.88387ZM40.1231 4.81721C40.3487 4.46744 40.6859 4.25811 41.0607 4.04887C40.8351 4.39863 40.4976 4.67803 40.1228 4.88728C40.1228 4.88728 40.0856 4.85214 40.1231 4.81721ZM40.0853 4.92222C40.0102 5.02713 39.9351 5.097 39.7849 5.27179C39.8981 4.99181 39.8981 4.99181 40.0853 4.92222ZM35.574 33.6394C35.3864 33.8141 35.3864 33.8141 35.0497 33.8483C35.0498 33.8133 35.0125 33.7781 35.0126 33.7431C35.1997 33.7085 35.3495 33.6739 35.574 33.6394ZM35.4405 7.04733C35.5147 7.22271 35.4394 7.36265 35.2897 7.3973C35.1026 7.43185 34.9157 7.39633 34.8418 7.1509C35.0662 7.11644 35.2534 7.08189 35.4405 7.04733ZM32.4971 3.78145C32.6471 3.67673 32.8343 3.60714 32.9839 3.60754C33.1709 3.60802 33.1703 3.78319 33.2072 3.92343C33.0196 4.09811 32.7951 4.13257 32.5709 4.06191C32.459 3.99156 32.3848 3.81619 32.4971 3.78145ZM31.0528 32.4365C31.0153 32.4714 30.9778 32.4713 30.9404 32.4712C30.903 32.4711 30.8657 32.436 30.7912 32.3658C30.9035 32.331 30.9409 32.3311 30.9783 32.3312C31.0155 32.3663 31.0528 32.4365 31.0528 32.4365ZM30.8898 3.53204C30.8896 3.60211 30.9268 3.63724 30.9267 3.67227C30.8517 3.74215 30.7394 3.7769 30.6643 3.84677C30.6271 3.81164 30.6272 3.77661 30.5898 3.74147C30.6649 3.6716 30.7774 3.60182 30.8898 3.53204ZM29.855 32.7136C29.8925 32.6787 29.9672 32.7139 30.0796 32.6792C30.0044 32.7841 29.9669 32.8191 29.9294 32.854C29.8918 32.889 29.8171 32.8537 29.7049 32.8534C29.78 32.7835 29.8175 32.7486 29.855 32.7136ZM28.496 3.59592C28.4962 3.56088 28.4963 3.52584 28.4963 3.49081C28.5712 3.491 28.646 3.4912 28.7208 3.49139C28.7208 3.49139 28.7206 3.52642 28.7205 3.56146L28.496 3.59592ZM29.1344 2.82679C29.1718 2.82689 29.2092 2.82699 29.2465 2.86211C29.2085 3.0372 29.1705 3.21227 29.1322 3.49245C28.9088 3.17656 29.0963 3.03691 29.1344 2.82679ZM28.7977 2.86095C29.022 2.89657 28.984 3.07165 28.8713 3.2115C28.7218 3.21111 28.5721 3.21072 28.3853 3.1752C28.4608 2.96518 28.5734 2.82534 28.7977 2.86095ZM28.1966 3.66521C28.1589 3.73518 28.1586 3.84029 28.0838 3.8401C27.5218 4.11892 26.9971 4.43288 26.4352 4.7117C26.8857 4.22238 27.8973 3.66443 28.1966 3.66521ZM25.4289 3.69307C25.541 3.7284 25.6155 3.79867 25.7277 3.834C25.7275 3.86903 25.7274 3.90406 25.69 3.90396C25.6152 3.90377 25.5777 3.90368 25.5031 3.86845C25.4284 3.83321 25.3912 3.79809 25.354 3.72792C25.3914 3.72802 25.3915 3.69298 25.4289 3.69307ZM25.1676 3.55226C25.1675 3.5873 25.1673 3.62233 25.1672 3.65737C25.0547 3.76218 24.8681 3.65659 24.7185 3.62117C24.8682 3.62155 25.0179 3.58691 25.1676 3.55226ZM23.3845 32.8371C23.5343 32.7674 23.6093 32.6975 23.7218 32.6277C23.759 32.6979 23.7963 32.7331 23.7961 32.7681C23.721 32.8729 23.6461 32.9078 23.3845 32.8371ZM24.1646 1.58769C24.2765 1.65805 24.2764 1.69309 24.1631 2.00812C23.8641 1.93727 23.4149 2.07624 23.3044 1.58547C23.6416 1.37613 23.9409 1.37691 24.1646 1.58769ZM22.0041 31.8525C21.9295 31.7822 21.8922 31.7471 21.8177 31.6768C21.8552 31.642 21.8928 31.572 21.8927 31.607C21.9673 31.6422 22.042 31.7124 22.1166 31.7477L22.0041 31.8525ZM21.9972 1.05656C21.9215 1.30161 21.7721 1.26618 21.6228 1.1607C21.7352 1.12595 21.8475 1.09121 21.9972 1.05656ZM21.8467 1.30142C21.8464 1.40652 21.8462 1.44156 21.8461 1.47659C21.7712 1.51143 21.6589 1.54617 21.584 1.58101C21.5841 1.54598 21.5469 1.51085 21.547 1.47581C21.6219 1.44098 21.6969 1.3711 21.8467 1.30142ZM19.9409 0.841021C19.9409 0.841021 19.9784 0.806084 19.9783 0.841117L20.0156 0.876247C19.978 0.946221 19.9778 1.01629 19.9401 1.08627C19.9027 1.08617 19.9027 1.08617 19.8653 1.08607C19.903 0.981064 19.9407 0.911091 19.9409 0.841021ZM19.6417 0.875279C19.6789 0.910413 19.6786 1.01552 19.6412 1.01542C19.4912 1.12014 19.4166 1.04988 19.3048 0.944481C19.4176 0.769598 19.5299 0.734853 19.6417 0.875279ZM17.4296 2.48117C17.8794 2.16702 18.2922 1.7827 18.929 1.46904C18.8911 1.60908 18.8909 1.67915 18.8535 1.67905C18.516 1.92342 18.1411 2.20274 17.7664 2.41198C17.6913 2.48186 17.5418 2.48147 17.4295 2.51621C17.3921 2.51611 17.3922 2.48107 17.4296 2.48117ZM17.392 2.55114C17.3917 2.62122 17.3915 2.69129 17.3541 2.6912C17.1291 2.83075 16.9044 2.93528 16.6797 3.0398C16.8301 2.79494 17.0551 2.62034 17.392 2.55114ZM16.3062 2.89869C16.4187 2.79387 16.5313 2.68906 16.6439 2.54921C16.6057 2.79436 16.6057 2.79436 16.3062 2.89869ZM2.79684 27.1431C2.64629 27.423 2.53492 27.1774 2.38533 27.1771C2.498 27.0372 2.61056 26.9324 2.79684 27.1431ZM1.90776 24.6533L1.98244 24.6885C1.98232 24.7236 1.94468 24.7936 1.90716 24.8285C1.83248 24.7933 1.7952 24.7581 1.7578 24.758C1.83273 24.7232 1.87024 24.6882 1.90776 24.6533ZM50.1818 5.33374C50.2192 5.33384 50.2566 5.33393 50.2939 5.33403C50.2942 5.26396 50.2571 5.19379 50.2573 5.12372C50.2199 5.12363 50.2199 5.12362 50.1825 5.12353C50.1449 5.1935 50.182 5.26367 50.1818 5.33374ZM61.6025 12.1952C61.5652 12.16 61.5654 12.125 61.5281 12.0898C61.4907 12.0897 61.4532 12.1247 61.4158 12.1246C61.4531 12.1597 61.4529 12.1948 61.4529 12.1948C61.5276 12.23 61.5651 12.1951 61.6025 12.1952ZM54.929 6.04673C54.9292 6.0117 54.9292 6.0117 54.929 6.04673C54.7795 6.04635 54.6673 6.04606 54.5176 6.04567C54.6673 6.04606 54.8169 6.04644 54.929 6.04673Z" fill="#9B51E0" fill-opacity="0.1"/>
</g>
<defs>
<clipPath id="clip0_3905_99">
<rect width="62.83" height="34.7982" fill="white" transform="translate(0.622559 0.116211)"/>
</clipPath>
</defs>
</svg>
