<svg width="49" height="31" viewBox="0 0 49 31" fill="none" xmlns="http://www.w3.org/2000/svg">
<g clip-path="url(#clip0_3905_96)">
<path d="M5.25472 24.2059C5.25463 24.2364 5.25463 24.2364 5.25472 24.2059V24.2059ZM0.920942 20.095C0.777919 20.431 0.720106 20.7672 0.946348 21.1043C0.889172 21.2264 0.832086 21.318 0.746508 21.4401C0.603757 21.6843 0.631432 21.9291 0.71592 22.174C0.744147 22.2352 0.857487 22.3273 0.885987 22.2968C1.1419 22.2058 1.48241 22.3291 1.65374 22.0239C1.73887 22.0547 1.79558 22.0855 1.88071 22.1163C1.68087 22.4521 1.31088 22.6956 1.45154 23.1547C1.62187 23.1859 1.76382 23.2169 1.90584 23.2173C1.99051 23.4011 2.01846 23.5541 1.93279 23.7067C1.9326 23.7678 1.90393 23.8595 1.93225 23.8901C2.04541 24.0434 2.18697 24.1967 2.32864 24.3195C2.41367 24.3809 2.55542 24.4731 2.64073 24.4427C3.32263 24.3836 4.03303 24.294 4.71493 24.2348C4.88545 24.2048 5.05589 24.2053 5.22631 24.2058C5.19855 23.9917 5.34066 23.9615 5.48269 23.9619C5.5111 23.962 5.53922 24.0538 5.59576 24.1457C5.48206 24.176 5.36834 24.2062 5.22622 24.2364C5.33993 24.2061 5.48206 24.176 5.59576 24.1457L6.22067 24.1476C6.07837 24.2389 6.02147 24.2693 5.93617 24.2997C5.99289 24.3304 6.04961 24.3612 6.10632 24.3919C6.04851 24.7281 5.96221 25.0949 6.21703 25.3709C5.98888 25.6761 5.93116 25.9817 6.07218 26.3185C6.49835 26.2891 6.7824 26.29 6.98096 26.3824C6.95237 26.4435 6.92379 26.5045 6.89521 26.5656C6.86653 26.6572 6.80953 26.7183 6.78085 26.8099C6.695 27.0237 6.75145 27.1463 6.9786 27.1775C7.007 27.1775 7.03541 27.1777 7.09222 27.1778C7.26265 27.1783 7.31919 27.2703 7.29024 27.4537C7.26156 27.5454 7.23279 27.6676 7.28951 27.6983C7.40268 27.8516 7.54415 28.0355 7.71431 28.1278C7.85606 28.2199 8.02649 28.2204 8.19703 28.1903C8.82216 28.1004 9.4191 27.9799 10.0443 27.8594C10.357 27.7992 10.6698 27.6778 10.9816 27.8928C10.9819 27.8011 11.0105 27.74 11.0106 27.7094C11.1528 27.6486 11.3233 27.6185 11.4655 27.5578C11.9774 27.3453 12.4893 27.1327 13.0014 26.8896C13.7977 26.5556 14.5942 26.1909 15.3906 25.8263C15.6181 25.7352 15.8742 25.5831 16.0735 25.4308C16.3013 25.248 16.5571 25.1875 16.8697 25.1579C16.841 25.2496 16.8408 25.3107 16.8123 25.3412C16.6981 25.5244 16.5272 25.7074 16.4413 25.9212C16.3553 26.1656 16.3545 26.4408 16.3253 26.716C16.2961 26.9605 16.2387 27.2051 16.2095 27.4496C16.1807 27.5719 16.1803 27.7248 16.1799 27.8471C16.3786 27.9088 16.5489 27.94 16.776 28.0018C16.7755 28.1547 16.775 28.3076 16.7462 28.4604C16.7173 28.6438 16.7737 28.7663 16.9155 28.8279C17.1142 28.8897 17.1138 29.0426 17.0848 29.226C17.0848 29.226 17.0848 29.1954 17.1133 29.1955C17.1702 29.165 17.227 29.1346 17.2556 29.1042C17.2555 29.1347 17.2554 29.1653 17.2553 29.1959C17.1985 29.1957 17.1417 29.1956 17.0848 29.226C17.1131 29.2567 17.1698 29.2874 17.1696 29.3486C17.2816 29.8993 17.6507 29.9617 18.0483 29.9628C18.5598 29.9338 19.0712 29.9047 19.5825 29.8756C20.0371 29.8464 20.4923 29.6031 20.975 29.6657C21.0602 29.666 21.1456 29.605 21.2309 29.5747C21.231 29.5442 21.231 29.5442 21.2311 29.5135L21.0038 29.5129C21.004 29.4823 21.004 29.4823 21.004 29.4517C21.2315 29.3912 21.4873 29.3003 21.7148 29.2398C21.6008 29.3617 21.4588 29.3614 21.4014 29.5447C21.4868 29.5144 21.5436 29.5145 21.6005 29.4841C22.027 29.3324 22.4536 29.1502 22.8518 28.9985C23.1645 28.8771 23.4775 28.7251 23.762 28.5425C24.3027 28.2076 24.9283 27.9955 25.4408 27.5994C25.583 27.5081 25.6964 27.6002 25.6959 27.7837C25.6956 27.8754 25.667 27.9671 25.6382 28.0587L25.6667 28.0588C25.7239 27.906 25.7811 27.7839 25.8668 27.6312C25.9234 27.6926 25.98 27.7539 26.0367 27.8152C26.1506 27.6933 26.2647 27.5407 26.3503 27.4186C26.3784 27.5105 26.4065 27.6329 26.378 27.6633C26.2356 27.7547 26.3201 28.0302 26.1211 28.0601C26.1207 28.2131 26.1486 28.3967 26.148 28.5801C26.2619 28.4887 26.3474 28.3973 26.4614 28.2752C26.4888 28.6117 26.3463 28.7642 26.2323 28.8862C26.2886 29.0699 26.3732 29.2536 26.4012 29.4066C26.4285 29.7737 26.4568 29.8043 26.7693 29.8053C26.8544 29.8055 26.9398 29.7752 27.0534 29.7756C27.1386 29.7758 27.2524 29.7455 27.309 29.8069C27.5074 29.9298 27.7064 29.8998 27.9338 29.8393C28.0476 29.7785 28.1614 29.7176 28.2751 29.6874C28.4457 29.6268 28.6161 29.6273 28.7577 29.7806C28.786 29.8112 28.8997 29.781 28.9848 29.8118C28.9568 29.6894 28.9286 29.6282 28.9004 29.567C29.3272 29.293 29.3272 29.293 29.582 29.5996C29.6389 29.5691 29.6958 29.5387 29.7527 29.5083C29.6395 29.3551 29.7533 29.3249 29.867 29.2946C30.0374 29.2645 30.1799 29.112 30.3499 29.2655C30.3782 29.2961 30.4636 29.2352 30.4921 29.2047C30.6629 29.0829 30.8337 28.9611 31.0045 28.8392C31.0899 28.7784 31.1754 28.6868 31.3174 28.7179C31.374 28.7486 31.4594 28.6877 31.5163 28.6573C31.8578 28.4748 32.1707 28.2922 32.5121 28.1098C32.7967 27.9577 33.1094 27.8669 33.3657 27.6536C33.7644 27.3184 34.1912 27.0444 34.6181 26.7704C34.9312 26.5879 35.2442 26.3747 35.5573 26.1615C35.5858 26.1311 35.6142 26.1312 35.671 26.1313C35.7279 26.1315 36.1542 26.041 36.2112 25.98C36.3536 25.8581 36.6092 25.8589 36.61 25.5836C36.8087 25.6454 36.7809 25.4312 36.838 25.3397C37.0086 25.279 37.2075 25.2796 37.3214 25.1882C37.6345 24.9445 37.9194 24.67 38.2044 24.3651C38.4037 24.1822 38.5465 23.9379 38.7176 23.6938C38.8317 23.5412 38.9457 23.4193 39.088 23.3279C39.2019 23.2365 39.3157 23.1757 39.4296 23.0843C39.572 22.9624 39.7145 22.8099 39.8568 22.688C40.0846 22.5358 40.284 22.3528 40.2849 22.0164C40.4839 21.9865 40.6544 21.9564 40.5982 21.7422C40.7691 21.5898 40.8832 21.4372 41.0255 21.3153C41.111 21.2543 41.1964 21.1935 41.2534 21.1018C41.3389 21.0104 41.5096 20.9191 41.5099 20.8274C41.5107 20.5522 41.7383 20.4305 41.8809 20.2474C42.2229 19.8509 42.5932 19.5155 42.9069 19.119C43.3913 18.5699 43.8759 17.9903 44.3606 17.4107C44.731 17.0142 45.1014 16.6483 45.4719 16.2519C45.8708 15.8249 46.2414 15.3673 46.6405 14.9097C47.1531 14.4525 47.6375 13.9341 48.0936 13.4155C48.0091 13.1706 47.9529 12.9563 47.925 12.8033C47.7832 12.7112 47.6413 12.6802 47.6416 12.5884C47.6419 12.4661 47.7275 12.344 47.7562 12.2523C47.5293 12.1294 47.3307 12.037 47.1037 11.9446C47.0468 11.9751 46.933 12.0358 46.8192 12.0967C46.7918 11.7908 47.0474 11.7915 47.1899 11.639C47.0197 11.5774 46.8491 11.6075 46.7358 11.5154C46.6224 11.4233 46.5378 11.2395 46.4528 11.1475C46.2254 11.208 46.0264 11.2686 45.8273 11.3291C45.7136 11.3594 45.5997 11.4814 45.4866 11.2976C45.4867 11.267 45.373 11.2972 45.2877 11.3276C45.2308 11.3274 45.1739 11.3578 45.1171 11.3576C45.0894 11.1435 45.4019 11.1138 45.3175 10.8689C45.232 10.9298 45.1465 11.0213 45.061 11.1128C45.0328 11.0516 45.0046 10.9903 45.0331 10.9598C45.1192 10.6848 45.1768 10.4098 45.2912 10.1349C45.3197 10.1044 45.405 10.074 45.4335 10.0436C45.4055 9.92111 45.4059 9.7988 45.3777 9.70696C45.378 9.58465 45.3214 9.55389 45.2076 9.58413C45.1508 9.58399 45.0939 9.61438 45.0939 9.61438C44.981 9.36939 44.8679 9.18556 44.7832 9.03242C44.869 8.81856 44.9264 8.63524 44.9838 8.45192C44.7571 8.26779 44.5588 8.08367 44.3605 7.89962C44.3037 7.89947 44.2184 7.92979 44.133 7.96011C44.1333 7.89896 44.1334 7.83773 44.1336 7.77657C44.2486 7.31821 44.1644 6.98156 43.739 6.76621C43.6822 6.73546 43.569 6.6128 43.5975 6.5823C43.6833 6.36848 43.5131 6.3068 43.4282 6.18423C43.1455 5.75523 42.6345 5.63138 42.236 5.90544C42.1506 5.96635 42.037 5.96602 41.9518 5.96576C41.8663 6.05725 41.7806 6.20991 41.6667 6.30132C41.5529 6.39272 41.3824 6.39221 41.3259 6.26972C41.2697 6.08606 41.1278 6.05505 41.0144 5.99355C41.1856 5.68824 41.4975 5.90324 41.6399 5.75076C41.612 5.59776 41.584 5.47535 41.5559 5.38352C41.4704 5.44443 41.4134 5.50542 41.3281 5.53575C40.6737 5.90079 40.076 6.32716 39.5348 6.84545C38.4522 7.91261 37.3979 9.01046 36.3436 10.1082C36.2866 10.1693 36.2297 10.1996 36.1728 10.2607C36.1444 10.23 36.1444 10.23 36.1161 10.1994C36.1732 10.1077 36.2304 9.98557 36.2874 9.89402C36.7441 9.16141 37.2291 8.45948 37.6574 7.72672C37.9429 7.23828 38.2 6.74973 38.4572 6.2306C38.5714 6.01686 38.6574 5.77246 38.6298 5.49714C38.5163 5.43564 38.4314 5.34364 38.2896 5.25147C38.4033 5.22122 38.4602 5.19082 38.574 5.12999C38.3188 5.0069 38.1769 4.94532 38.0068 4.85306L38.0079 4.48608C37.9226 4.48582 37.8375 4.48557 37.7522 4.48532C37.8381 4.24092 37.8381 4.24092 38.2928 4.18111C38.0943 4.08877 37.9808 4.02727 37.839 3.96568C37.9817 3.72145 37.8117 3.59861 37.6131 3.50628C37.4713 3.41411 37.3296 3.32194 37.2162 3.22985C37.1024 3.29068 36.9886 3.3515 36.8464 3.41225C36.8472 3.13701 36.8479 2.92293 36.8486 2.70886C36.8494 2.43363 36.7079 2.24971 36.5096 2.06563C36.4247 1.97363 36.2827 1.94263 36.1408 1.88104C36.1695 1.78938 36.1982 1.69771 36.2269 1.60605C36.1417 1.6058 36.0565 1.60555 35.9712 1.63587C35.8022 1.11548 35.774 1.08481 35.291 1.11396C35.2626 1.11387 35.2057 1.1137 35.2059 1.08312C35.1211 0.929956 35.0357 0.990869 34.9219 1.05169C34.7227 1.17343 34.5519 1.29525 34.3527 1.44756C34.2961 1.35565 34.211 1.29424 34.1545 1.20232C34.0412 1.07966 33.9564 0.957075 33.8432 0.834409C33.6724 0.956224 33.5018 1.01689 33.3593 1.13879C31.9357 2.26609 30.6537 3.54673 29.3716 4.82737C28.8017 5.43732 28.2034 6.04718 27.6335 6.62655C27.5766 6.68754 27.4913 6.71787 27.3774 6.80928C27.3495 6.62571 27.3214 6.50329 27.3218 6.38096C27.3509 6.16698 27.266 6.04439 27.0958 5.98272C27.0107 5.95188 26.9542 5.82939 26.8975 5.79864C26.8685 6.01263 26.8685 6.01263 26.5845 5.9812C26.6424 5.61439 26.6719 5.24749 26.7299 4.8501C26.673 4.84993 26.6163 4.84976 26.5594 4.88017C26.5025 4.91058 26.4454 4.97158 26.4172 4.94091C26.1334 4.81773 25.934 5.03122 25.7064 5.12229C25.5927 5.18312 25.5072 5.27461 25.3936 5.27427C25.4226 5.06028 25.48 4.84637 25.4522 4.6628C25.4249 4.29573 25.4545 3.89825 25.3704 3.53101L25.3704 3.50043C25.3992 3.37819 25.4563 3.28661 25.4851 3.16437C25.1729 3.04111 24.9169 3.16268 24.7179 3.22325C24.5762 3.13108 24.4345 3.03892 24.2927 2.94674C24.4065 2.88592 24.4918 2.85559 24.5487 2.82518C24.4356 2.67193 24.3223 2.51869 24.2091 2.39602C24.1525 2.33469 24.039 2.27319 23.9538 2.27293C23.8402 2.27259 23.698 2.33334 23.5842 2.39416C23.2144 2.57655 22.8445 2.78953 22.4746 3.0025C22.4186 2.7271 22.6466 2.45253 22.3633 2.23762C22.4771 2.17679 22.5908 2.11596 22.6762 2.05505C22.6763 2.02447 22.648 1.9938 22.648 1.9938C22.3635 2.14587 22.0792 2.23677 21.823 2.4195C21.2823 2.7543 20.7415 3.11967 20.2292 3.45456C20.0585 3.57638 19.8882 3.51471 19.8031 3.45329C19.4632 3.14645 19.094 3.11477 18.6396 3.08284C18.7261 2.65495 18.5853 2.25696 18.7002 1.82915C18.8148 1.49309 18.7017 1.33984 18.3609 1.30824C18.2756 1.30799 18.1621 1.27707 18.0768 1.3074C17.9632 1.30706 17.8781 1.27623 17.7932 1.18422C17.6233 0.969644 17.4535 0.755063 17.2837 0.571063C17.227 0.509733 17.1419 0.478895 17.0567 0.478641C16.8862 0.508716 16.7157 0.508209 16.545 0.599448C16.3459 0.690603 16.1467 0.842922 15.9189 0.995156C15.9763 0.811833 16.005 0.689589 16.0339 0.536766C15.7493 0.71941 15.7198 1.11689 15.4351 1.33012C15.464 1.14671 15.5212 0.993974 15.5218 0.810478C15.5223 0.65757 15.4659 0.50449 15.4097 0.320831C15.5802 0.290756 15.7507 0.260681 15.8928 0.230525C15.6943 0.138186 15.6943 0.138186 15.5235 0.229425C15.2106 0.381404 14.8978 0.502803 14.6415 0.716114C13.9583 1.23398 13.2748 1.813 12.5915 2.36145C12.4776 2.45286 12.3636 2.57485 12.1927 2.72725C12.3348 2.69709 12.3916 2.69726 12.4484 2.69743C12.5335 2.75885 12.6186 2.78969 12.732 2.85119C12.6749 2.94276 12.6177 3.06492 12.5323 3.15642C12.3328 3.36989 12.02 3.49129 11.9622 3.82753C11.9621 3.85811 11.9337 3.85802 11.9053 3.85794C11.3644 4.2539 10.8517 4.71111 10.424 5.26031C10.31 5.41288 10.2813 5.50454 10.3093 5.65754C10.8775 5.59807 10.9627 5.6289 11.1041 5.81281C10.9619 5.90413 10.7344 5.96463 10.6487 6.11728C10.5631 6.26993 10.5059 6.36151 10.3353 6.45275C10.2215 6.51358 10.1926 6.66641 10.2775 6.78899C10.3339 6.91148 10.4477 6.85066 10.5331 6.78974C10.6469 6.72892 10.7324 6.63743 10.8461 6.60718C10.8746 6.57669 10.9597 6.6381 10.9881 6.63819C10.9594 6.69927 10.9593 6.76043 10.9308 6.79093C10.8738 6.85193 10.7884 6.88226 10.7315 6.94325C10.6745 7.00424 10.5607 7.06507 10.5605 7.12623C10.5883 7.34039 10.4462 7.37055 10.3324 7.43137C10.2469 7.49231 10.1616 7.55317 10.0762 7.6141C10.1326 7.76718 10.1606 7.88963 10.1886 8.01202C10.1601 8.04248 10.1315 8.10356 10.1315 8.13418C8.62093 9.81172 7.13899 11.4587 5.62852 13.1363C4.97311 13.8377 4.3177 14.5392 3.69061 15.2713C3.40565 15.5762 3.149 15.9119 3.0057 16.3396C2.94844 16.4923 2.86267 16.6755 2.74869 16.7976C2.32116 17.2856 1.86522 17.7735 1.4377 18.2616C1.18114 18.5667 0.924672 18.8412 0.753058 19.2382C0.695706 19.4215 0.666848 19.5744 0.808415 19.7276C1.06424 19.6672 1.03529 19.8507 0.920942 20.095ZM16.4086 27.3584C16.4649 27.5421 16.5212 27.6952 16.5492 27.8482C16.265 27.8779 16.2367 27.8472 16.4086 27.3584ZM46.3092 11.6976C46.3092 11.667 46.3945 11.6367 46.423 11.6062C46.4513 11.6674 46.5079 11.7287 46.5078 11.7594C46.4791 11.851 46.4221 11.9426 46.365 12.0036C46.3366 12.0035 46.3083 11.9728 46.3083 11.9728C46.3086 11.8811 46.2804 11.7892 46.3092 11.6976ZM44.7572 8.20664C44.6431 8.38974 44.8698 8.57394 44.6422 8.69559C44.5575 8.51183 44.4727 8.35868 44.3597 8.17485C44.5017 8.17529 44.5868 8.20613 44.7572 8.20664ZM43.9653 7.07271C43.9649 7.19503 43.993 7.31745 43.9927 7.40919C43.9643 7.40911 43.9358 7.4396 43.9358 7.4396C43.8792 7.37827 43.7941 7.31686 43.6807 7.22477C43.7945 7.16395 43.8515 7.13353 43.9653 7.07271ZM43.6796 7.62233C43.7928 7.77562 43.8207 7.92854 43.6784 8.01987C43.65 8.0198 43.6217 7.98918 43.5933 7.98904C43.5937 7.83619 43.6508 7.74456 43.6796 7.62233ZM42.6049 6.02887C42.8042 5.90713 43.0596 5.93847 43.2581 6.09198C43.116 6.12213 42.9738 6.15229 42.8316 6.21304C42.6894 6.27377 42.5472 6.33452 42.4333 6.42593C42.405 6.39526 42.3767 6.36459 42.3484 6.33392C42.4339 6.24243 42.4911 6.08969 42.6049 6.02887ZM40.1601 6.6944C40.2455 6.63349 40.3309 6.57258 40.3595 6.5115C40.5025 6.17552 40.8147 6.23762 41.1276 6.11622C40.9562 6.42153 40.955 6.8191 40.501 6.66484C40.4443 6.63408 40.3872 6.72566 40.3304 6.75607C40.0172 6.9998 39.7039 7.2741 39.4191 7.51793C39.3908 7.48724 39.3908 7.48724 39.3624 7.45658C39.6474 7.18219 39.9037 6.93829 40.1601 6.6944ZM37.2945 24.6682C37.2943 24.7294 37.2941 24.7905 37.294 24.8211C37.2652 24.9739 37.2085 24.9126 37.0667 24.851C37.1522 24.7595 37.2091 24.7291 37.2945 24.6682ZM38.3457 5.4963C38.5154 5.74146 38.4864 5.95544 38.1443 6.38258C38.2303 6.1076 38.288 5.80195 38.3457 5.4963ZM37.4425 3.56693C37.4993 3.5671 37.5274 3.65893 37.5842 3.68968C37.5273 3.72009 37.4702 3.81167 37.4417 3.81159C37.3567 3.78075 37.3 3.71942 37.1581 3.65784C37.3004 3.59709 37.3573 3.56668 37.4425 3.56693ZM36.4802 2.37136C36.6507 2.37187 36.6218 2.52469 36.593 2.67752L36.3374 2.67676C36.2526 2.49301 36.3098 2.37086 36.4802 2.37136ZM36.3078 3.07424L36.3361 3.07432C36.3076 3.13541 36.3073 3.22715 36.2787 3.28823C36.2503 3.28815 36.2503 3.28815 36.222 3.25748C36.2504 3.22698 36.2791 3.13532 36.3078 3.07424ZM35.3474 1.26704C35.3469 1.41994 35.375 1.54236 35.3463 1.60344C35.2322 1.78659 35.0615 1.87783 34.7775 1.8464C34.977 1.63292 35.1479 1.48051 35.3474 1.26704ZM33.5863 1.23122C33.7854 1.17064 33.9558 1.17115 34.1547 1.14116C34.1544 1.26348 34.1824 1.38589 34.1819 1.5388C34.1535 1.53872 34.125 1.56922 34.125 1.56922C34.0968 1.50797 34.0685 1.4773 34.0119 1.38539C33.9832 1.47705 33.9547 1.53813 33.9261 1.59921C33.7274 1.56804 33.5287 1.50628 33.33 1.47511C33.3588 1.32228 33.4726 1.26146 33.5863 1.23122ZM33.443 1.65894C33.4143 1.78119 33.4423 1.90359 33.3854 1.93401C33.2999 2.0255 33.2144 2.11699 33.1007 2.14723C32.7025 2.32954 32.3892 2.63443 32.0757 2.93932C31.9334 3.06123 31.791 3.15255 31.6487 3.27445C31.6204 3.24379 31.6204 3.2132 31.5922 3.18254C32.1902 2.66442 32.7032 2.08489 33.443 1.65894ZM30.6233 4.21945C30.7946 3.91414 31.0508 3.73141 31.3354 3.54876C31.1641 3.85408 30.9077 4.09797 30.6231 4.28061C30.6231 4.28061 30.5948 4.24995 30.6233 4.21945ZM30.5946 4.31112C30.5375 4.40269 30.4805 4.46368 30.3664 4.61625C30.4524 4.37185 30.4524 4.37185 30.5946 4.31112ZM27.1682 29.3783C27.0257 29.5308 27.0257 29.5308 26.77 29.5606C26.7701 29.5301 26.7418 29.4994 26.7418 29.4688C26.884 29.4387 26.9977 29.4084 27.1682 29.3783ZM27.0668 6.16613C27.1232 6.31921 27.066 6.44137 26.9523 6.47161C26.8102 6.50177 26.6683 6.47077 26.6121 6.25652C26.7826 6.22645 26.9247 6.19628 27.0668 6.16613ZM24.8313 3.31534C24.9452 3.22393 25.0874 3.16319 25.201 3.16352C25.343 3.16395 25.3426 3.31686 25.3706 3.43927C25.2281 3.59176 25.0576 3.62183 24.8874 3.56016C24.8023 3.49875 24.746 3.34566 24.8313 3.31534ZM23.7343 28.3283C23.7058 28.3588 23.6774 28.3587 23.649 28.3587C23.6206 28.3586 23.5922 28.3279 23.5356 28.2665C23.6209 28.2362 23.6494 28.2363 23.6778 28.2364C23.706 28.267 23.7343 28.3283 23.7343 28.3283ZM23.6105 3.09763C23.6104 3.15879 23.6386 3.18945 23.6386 3.22004C23.5816 3.28103 23.4963 3.31136 23.4392 3.37236C23.411 3.34169 23.411 3.31111 23.3827 3.28045C23.4398 3.21944 23.5251 3.15854 23.6105 3.09763ZM22.8246 28.5702C22.8531 28.5398 22.9098 28.5705 22.9951 28.5402C22.938 28.6318 22.9095 28.6622 22.8811 28.6928C22.8526 28.7232 22.7958 28.6925 22.7106 28.6922C22.7676 28.6312 22.7961 28.6008 22.8246 28.5702ZM21.7924 3.15339C21.7925 3.1228 21.7926 3.09222 21.7927 3.06164C21.8495 3.06181 21.9063 3.06198 21.9631 3.06214C21.9631 3.06214 21.963 3.09272 21.9629 3.12331L21.7924 3.15339ZM22.2773 2.48202C22.3057 2.4821 22.3341 2.48218 22.3625 2.51285C22.3336 2.66568 22.3047 2.8185 22.2756 3.06308C22.1059 2.78733 22.2484 2.66542 22.2773 2.48202ZM22.0216 2.51184C22.1919 2.54293 22.1631 2.69575 22.0775 2.81783C21.9639 2.81749 21.8502 2.81715 21.7083 2.78615C21.7657 2.60282 21.8512 2.48075 22.0216 2.51184ZM21.565 3.21387C21.5364 3.27495 21.5362 3.36669 21.4793 3.36652C21.0525 3.60991 20.654 3.88397 20.2272 4.12736C20.5694 3.70022 21.3377 3.2132 21.565 3.21387ZM19.4629 3.23819C19.5481 3.26904 19.6047 3.33037 19.6898 3.3612C19.6897 3.39179 19.6896 3.42236 19.6612 3.42228C19.6044 3.42211 19.576 3.42203 19.5193 3.39128C19.4625 3.36053 19.4343 3.32986 19.406 3.26861C19.4344 3.2687 19.4345 3.23811 19.4629 3.23819ZM19.2645 3.11527C19.2644 3.14586 19.2643 3.17644 19.2642 3.20702C19.1787 3.29852 19.037 3.20635 18.9234 3.17543C19.037 3.17577 19.1508 3.14552 19.2645 3.11527ZM17.9102 28.6779C18.024 28.6171 18.0809 28.5561 18.1663 28.4952C18.1946 28.5565 18.2229 28.5871 18.2228 28.6177C18.1657 28.7093 18.1088 28.7397 17.9102 28.6779ZM18.5026 1.40041C18.5877 1.46183 18.5876 1.49241 18.5015 1.7674C18.2745 1.70555 17.9332 1.82686 17.8493 1.39846C18.1055 1.21573 18.3328 1.21641 18.5026 1.40041ZM16.8617 27.8185C16.8051 27.7572 16.7768 27.7265 16.7202 27.6652C16.7487 27.6347 16.7772 27.5736 16.7772 27.6042C16.8338 27.635 16.8905 27.6963 16.9472 27.7271L16.8617 27.8185ZM16.8565 0.936776C16.799 1.15069 16.6855 1.11976 16.5722 1.02768C16.6575 0.997351 16.7428 0.967023 16.8565 0.936776ZM16.7422 1.15052C16.742 1.24226 16.7418 1.27284 16.7418 1.30343C16.6849 1.33384 16.5996 1.36416 16.5427 1.39458C16.5427 1.36399 16.5145 1.33333 16.5146 1.30275C16.5714 1.27234 16.6284 1.21134 16.7422 1.15052ZM15.2948 0.74864C15.2948 0.74864 15.3232 0.718143 15.3232 0.748725L15.3515 0.779391C15.3229 0.840468 15.3227 0.901632 15.2941 0.962714C15.2658 0.962626 15.2657 0.962626 15.2373 0.962545C15.266 0.870878 15.2946 0.809805 15.2948 0.74864ZM15.0675 0.778546C15.0957 0.809213 15.0955 0.900957 15.0671 0.900869C14.9532 0.992278 14.8966 0.930947 14.8116 0.83895C14.8973 0.686293 14.9826 0.655964 15.0675 0.778546ZM13.3874 2.18033C13.729 1.9061 14.0425 1.57064 14.5262 1.29683C14.4974 1.41908 14.4972 1.48024 14.4688 1.48015C14.2125 1.69347 13.9278 1.93728 13.6432 2.11992C13.5862 2.18092 13.4726 2.18058 13.3873 2.21091C13.3589 2.21083 13.3589 2.18024 13.3874 2.18033ZM13.3588 2.2414C13.3586 2.30257 13.3584 2.36374 13.33 2.36365C13.1592 2.48547 12.9885 2.57671 12.8178 2.66795C12.932 2.45421 13.1029 2.30181 13.3588 2.2414ZM12.5341 2.54478C12.6196 2.45329 12.7051 2.36179 12.7906 2.23972C12.7616 2.45371 12.7616 2.45371 12.5341 2.54478ZM2.27365 23.7077C2.1593 23.952 2.07472 23.7377 1.9611 23.7374C2.04668 23.6153 2.13217 23.5238 2.27365 23.7077ZM1.59839 21.5344L1.65511 21.5651C1.65501 21.5957 1.62643 21.6568 1.59793 21.6872C1.54121 21.6565 1.5129 21.6259 1.48449 21.6258C1.5414 21.5953 1.56989 21.5649 1.59839 21.5344ZM38.263 4.67033C38.2914 4.67042 38.3198 4.6705 38.3481 4.67059C38.3484 4.60943 38.3202 4.54817 38.3203 4.487C38.2919 4.48692 38.2919 4.48692 38.2635 4.48684C38.2349 4.54792 38.2631 4.60917 38.263 4.67033ZM46.9371 10.6597C46.9088 10.629 46.909 10.5984 46.8806 10.5678C46.8522 10.5677 46.8237 10.5981 46.7953 10.5981C46.8237 10.6288 46.8235 10.6593 46.8235 10.6593C46.8803 10.6901 46.9087 10.6596 46.9371 10.6597ZM41.8686 5.2927C41.8687 5.26212 41.8687 5.26212 41.8686 5.2927C41.755 5.29236 41.6697 5.29211 41.5561 5.29177C41.6697 5.29211 41.7834 5.29245 41.8686 5.2927Z" fill="#219653" fill-opacity="0.1"/>
</g>
<defs>
<clipPath id="clip0_3905_96">
<rect width="47.72" height="30.1003" fill="white" transform="translate(0.622559 0.116211)"/>
</clipPath>
</defs>
</svg>
