<svg width="41" height="41" viewBox="0 0 41 41" fill="none" xmlns="http://www.w3.org/2000/svg">
<path d="M30.0993 17.0128H11.2993C11.1215 17.0128 10.9881 17.0794 10.8993 17.2128C10.8104 17.3461 10.7659 17.5016 10.7659 17.6794C10.7659 17.8572 10.8104 17.9905 10.8993 18.0794C10.9881 18.1683 11.1215 18.2128 11.2993 18.2128H30.0993C30.277 18.2128 30.4326 18.1683 30.5659 18.0794C30.6993 17.9905 30.7659 17.8572 30.7659 17.6794C30.7659 17.5016 30.6993 17.3461 30.5659 17.2128C30.4326 17.0794 30.277 17.0128 30.0993 17.0128ZM30.0993 11.9461H11.2993C11.1215 11.9461 10.9881 12.0128 10.8993 12.1461C10.8104 12.2794 10.7659 12.435 10.7659 12.6128C10.7659 12.7905 10.8104 12.9461 10.8993 13.0794C10.9881 13.2128 11.1215 13.2794 11.2993 13.2794H30.0993C30.277 13.2794 30.4326 13.2128 30.5659 13.0794C30.6993 12.9461 30.7659 12.7905 30.7659 12.6128C30.7659 12.435 30.6993 12.2794 30.5659 12.1461C30.4326 12.0128 30.277 11.9461 30.0993 11.9461ZM30.0993 21.9461H11.2993C11.1215 21.9461 10.9881 22.0128 10.8993 22.1461C10.8104 22.2794 10.7659 22.435 10.7659 22.6128C10.7659 22.7905 10.8104 22.9461 10.8993 23.0794C10.9881 23.2128 11.1215 23.2794 11.2993 23.2794H30.0993C30.277 23.2794 30.4326 23.2128 30.5659 23.0794C30.6993 22.9461 30.7659 22.7905 30.7659 22.6128C30.7659 22.435 30.6993 22.2794 30.5659 22.1461C30.4326 22.0128 30.277 21.9461 30.0993 21.9461ZM30.0993 27.0128H11.2993C11.1215 27.0128 10.9881 27.0794 10.8993 27.2128C10.8104 27.3461 10.7659 27.5016 10.7659 27.6794C10.7659 27.8572 10.8104 27.9905 10.8993 28.0794C10.9881 28.1683 11.1215 28.2128 11.2993 28.2128H30.0993C30.277 28.2128 30.4326 28.1683 30.5659 28.0794C30.6993 27.9905 30.7659 27.8572 30.7659 27.6794C30.7659 27.5016 30.6993 27.3461 30.5659 27.2128C30.4326 27.0794 30.277 27.0128 30.0993 27.0128ZM25.0326 31.9461H11.2993C11.1215 31.9461 10.9881 32.0128 10.8993 32.1461C10.8104 32.2794 10.7659 32.435 10.7659 32.6128C10.7659 32.7905 10.8104 32.9461 10.8993 33.0794C10.9881 33.2128 11.1215 33.2794 11.2993 33.2794H25.0326C25.2104 33.2794 25.3659 33.2128 25.4993 33.0794C25.6326 32.9461 25.6993 32.7905 25.6993 32.6128C25.6993 32.435 25.6326 32.2794 25.4993 32.1461C25.3659 32.0128 25.2104 31.9461 25.0326 31.9461ZM35.5659 8.47942C35.477 8.47942 34.1881 7.23498 31.6993 4.74609L27.8326 0.879425C27.7437 0.790535 27.3881 0.74609 26.7659 0.74609H8.76592C7.87703 0.74609 7.12147 1.0572 6.49925 1.67942C5.87703 2.30165 5.56592 3.0572 5.56592 3.94609V37.6794C5.56592 38.4794 5.87703 39.1905 6.49925 39.8128C7.12147 40.435 7.87703 40.7461 8.76592 40.7461H32.4993C33.3881 40.7461 34.1215 40.435 34.6993 39.8128C35.277 39.1905 35.5659 38.4794 35.5659 37.6794V9.94609C35.5659 9.0572 35.5659 8.61276 35.5659 8.61276V8.47942ZM33.4326 8.21276H28.0993V2.87943L33.4326 8.21276ZM32.4993 39.5461H8.76592C8.23258 39.5461 7.78814 39.3461 7.43258 38.9461C7.07703 38.5461 6.89925 38.1239 6.89925 37.6794V3.94609C6.89925 3.41276 7.07703 2.94609 7.43258 2.54609C7.78814 2.14609 8.23258 1.94609 8.76592 1.94609H26.8993V8.87943C26.8993 9.0572 26.9659 9.21276 27.0993 9.34609C27.2326 9.47943 27.3881 9.54609 27.5659 9.54609H34.3659V37.6794C34.3659 38.1239 34.1881 38.5461 33.8326 38.9461C33.477 39.3461 33.0326 39.5461 32.4993 39.5461Z" fill="#219653"/>
</svg>
