<svg width="44" height="44" viewBox="0 0 44 44" fill="none" xmlns="http://www.w3.org/2000/svg">
<path d="M34.6027 26.8787C33.7427 25.9232 32.7393 25.4454 31.5927 25.4454C30.446 25.4454 29.3949 25.9232 28.4393 26.8787L25.5727 29.7454L23.996 28.8854C21.3204 27.1654 18.836 24.8721 16.5427 22.0054C15.396 20.6676 14.5838 19.3776 14.106 18.1354L16.9727 15.4121C17.9282 14.4565 18.406 13.4054 18.406 12.2588C18.406 11.1121 17.9282 10.061 16.9727 9.10542L11.956 4.08875C11.0004 3.13319 9.97321 2.65542 8.87433 2.65542C7.77544 2.65542 6.74821 3.13319 5.79266 4.08875L2.63933 7.24208C1.49266 8.38875 0.82377 9.77431 0.632659 11.3988C0.537104 13.4054 0.967104 15.651 1.92266 18.1354C3.35599 22.0532 5.64933 25.9232 8.80266 29.7454C12.816 34.5232 17.546 38.2021 22.9927 40.7821C26.0504 42.2154 28.726 43.0276 31.0193 43.2188H31.5927C33.6949 43.2188 35.4149 42.4543 36.7527 40.9254H36.896C37.1827 40.5432 37.6604 40.0176 38.3293 39.3488L39.6193 38.0588C40.5749 37.1032 41.0527 36.0521 41.0527 34.9054C41.0527 33.7587 40.5749 32.7554 39.6193 31.8954L34.6027 26.8787ZM37.8993 36.4821L36.7527 37.4854C35.9882 38.2499 35.4149 38.871 35.0327 39.3488C34.0771 40.3043 32.9304 40.7821 31.5927 40.7821H31.1627C29.156 40.6865 26.8149 39.9699 24.1393 38.6321C18.9793 36.1476 14.4882 32.6599 10.666 28.1687C7.70377 24.5376 5.55377 20.9065 4.21599 17.2754C3.35599 15.0776 3.02155 13.1665 3.21266 11.5421C3.30821 10.491 3.69044 9.63097 4.35933 8.96209L7.51266 5.80875C7.99044 5.33097 8.44433 5.09208 8.87433 5.09208C9.30433 5.09208 9.75821 5.33097 10.236 5.80875L15.2527 10.8254C16.1127 11.781 16.1127 12.6888 15.2527 13.5487L14.3927 14.4088C13.5327 15.3643 12.7682 16.081 12.0993 16.5588V16.7021C11.526 17.2754 11.3827 17.9443 11.6693 18.7087V18.8521C12.2427 20.2854 13.1982 21.8621 14.536 23.5821C17.0204 26.6399 19.7438 29.0765 22.706 30.8921L24.7127 32.0388C25.0949 32.2299 25.4771 32.3254 25.8593 32.3254C26.2415 32.3254 26.6238 32.0865 27.006 31.6088L30.1593 28.5988C30.6371 28.121 31.091 27.8821 31.521 27.8821C31.951 27.8821 32.4049 28.121 32.8827 28.5988L37.8993 33.6154C38.7593 34.4754 38.7593 35.431 37.8993 36.4821ZM23.8527 10.3954C26.2415 10.8732 28.3199 11.9721 30.0877 13.6921C31.8554 15.4121 32.9304 17.5143 33.3127 19.9988C33.4082 20.2854 33.5754 20.5243 33.8143 20.7154C34.0532 20.9065 34.316 21.0021 34.6027 21.0021H34.746C35.1282 20.9065 35.4149 20.7154 35.606 20.4288C35.7971 20.1421 35.8449 19.8554 35.7493 19.5688C35.2715 16.6065 33.9815 14.0743 31.8793 11.9721C29.7771 9.86986 27.2449 8.57986 24.2827 8.10209C23.996 8.00653 23.7093 8.05431 23.4227 8.24542C23.136 8.43653 22.9688 8.69931 22.921 9.03375C22.8732 9.36819 22.9449 9.67875 23.136 9.96542C23.3271 10.2521 23.566 10.3954 23.8527 10.3954ZM43.6327 19.1388C42.7727 14.361 40.5988 10.2282 37.111 6.74042C33.6232 3.25264 29.4427 1.07875 24.5693 0.21875C24.2827 0.21875 23.996 0.314308 23.7093 0.505417C23.4227 0.696529 23.2554 0.959305 23.2077 1.29375C23.1599 1.6282 23.2315 1.91486 23.4227 2.15375C23.6138 2.39264 23.9004 2.55986 24.2827 2.65542C28.5827 3.41986 32.2854 5.35486 35.391 8.46042C38.4965 11.566 40.4315 15.2688 41.196 19.5688C41.196 19.8554 41.3154 20.0943 41.5543 20.2854C41.7932 20.4765 42.056 20.5721 42.3427 20.5721H42.6293C42.916 20.5721 43.1549 20.4288 43.346 20.1421C43.5371 19.8554 43.6327 19.521 43.6327 19.1388Z" fill="#2494E4"/>
</svg>
