<svg width="113" height="98" viewBox="0 0 113 98" fill="none" xmlns="http://www.w3.org/2000/svg">
<g clip-path="url(#clip0_3905_80)">
<path d="M17.8423 3.97018C17.5341 3.97018 17.2327 3.87899 16.9764 3.70813C16.7201 3.53728 16.5203 3.29443 16.4023 3.01031C16.2843 2.72618 16.2535 2.41354 16.3136 2.11192C16.3738 1.81029 16.5222 1.53323 16.7402 1.31577C16.9582 1.09832 17.2359 0.950227 17.5382 0.89023C17.8406 0.830233 18.154 0.861026 18.4388 0.978714C18.7236 1.0964 18.967 1.2957 19.1383 1.5514C19.3096 1.80711 19.401 2.10773 19.401 2.41527C19.399 2.82705 19.2342 3.22142 18.9423 3.5126C18.6504 3.80378 18.2551 3.96823 17.8423 3.97018Z" fill="#9B9B9B"/>
<path d="M17.8423 17.3246C17.5337 17.3246 17.2321 17.2332 16.9756 17.0621C16.7191 16.8909 16.5194 16.6476 16.4016 16.363C16.2839 16.0785 16.2534 15.7654 16.3142 15.4636C16.3749 15.1618 16.5241 14.8848 16.7429 14.6676C16.9616 14.4504 17.24 14.3029 17.5428 14.2438C17.8457 14.1846 18.1593 14.2165 18.444 14.3353C18.7287 14.4541 18.9716 14.6546 19.1419 14.9113C19.3123 15.168 19.4025 15.4693 19.401 15.7772C19.399 16.1883 19.2339 16.5818 18.9418 16.8718C18.6497 17.1618 18.2544 17.3246 17.8423 17.3246Z" fill="#9B9B9B"/>
<path d="M17.8423 30.686C17.5341 30.686 17.2327 30.5948 16.9764 30.424C16.7201 30.2531 16.5203 30.0103 16.4023 29.7262C16.2843 29.442 16.2535 29.1294 16.3136 28.8277C16.3738 28.5261 16.5222 28.2492 16.7402 28.0317C16.9582 27.8142 17.2359 27.666 17.5382 27.606C17.8406 27.546 18.154 27.5768 18.4388 27.6945C18.7236 27.8122 18.967 28.0115 19.1383 28.2672C19.3096 28.5229 19.401 28.8236 19.401 29.1311C19.401 29.3353 19.3607 29.5375 19.2823 29.7262C19.204 29.9148 19.0892 30.0862 18.9445 30.2306C18.7997 30.375 18.6279 30.4895 18.4388 30.5676C18.2497 30.6458 18.047 30.686 17.8423 30.686Z" fill="#9B9B9B"/>
<path d="M17.8425 44.0483C17.533 44.0482 17.2305 43.9562 16.9736 43.784C16.7166 43.6118 16.5169 43.3672 16.3999 43.0813C16.2828 42.7954 16.2538 42.4813 16.3164 42.1789C16.379 41.8765 16.5304 41.5995 16.7514 41.3833C16.9723 41.1671 17.2529 41.0214 17.5571 40.9648C17.8614 40.9082 18.1757 40.9432 18.46 41.0655C18.7442 41.1878 18.9855 41.3917 19.1531 41.6513C19.3208 41.9109 19.4071 42.2144 19.4012 42.5231C19.3915 42.9297 19.2232 43.3165 18.9322 43.6013C18.6411 43.8861 18.2502 44.0464 17.8425 44.0483Z" fill="#9B9B9B"/>
<path d="M17.8423 57.0385C17.5341 57.0385 17.2327 56.9473 16.9764 56.7765C16.7201 56.6056 16.5203 56.3628 16.4023 56.0787C16.2843 55.7945 16.2535 55.4819 16.3136 55.1803C16.3738 54.8787 16.5222 54.6016 16.7402 54.3841C16.9582 54.1667 17.2359 54.0186 17.5382 53.9586C17.8406 53.8986 18.154 53.9294 18.4388 54.0471C18.7236 54.1648 18.967 54.3641 19.1383 54.6198C19.3096 54.8755 19.401 55.1761 19.401 55.4836C19.401 55.896 19.2368 56.2915 18.9445 56.5831C18.6522 56.8747 18.2557 57.0385 17.8423 57.0385Z" fill="#9B9B9B"/>
<path d="M17.8423 70.3998C17.5341 70.3998 17.2327 70.3086 16.9764 70.1378C16.7201 69.9669 16.5203 69.7241 16.4023 69.4399C16.2843 69.1558 16.2535 68.8432 16.3136 68.5415C16.3738 68.2399 16.5222 67.9629 16.7402 67.7454C16.9582 67.5279 17.2359 67.3798 17.5382 67.3199C17.8406 67.2599 18.154 67.2906 18.4388 67.4083C18.7236 67.526 18.967 67.7253 19.1383 67.981C19.3096 68.2367 19.401 68.5374 19.401 68.8449C19.399 69.2567 19.2342 69.651 18.9423 69.9422C18.6504 70.2334 18.2551 70.3979 17.8423 70.3998Z" fill="#9B9B9B"/>
<path d="M17.8423 83.7622C17.5341 83.7622 17.2327 83.671 16.9764 83.5001C16.7201 83.3293 16.5203 83.0864 16.4023 82.8023C16.2843 82.5182 16.2535 82.2055 16.3136 81.9039C16.3738 81.6023 16.5222 81.3252 16.7402 81.1078C16.9582 80.8903 17.2359 80.7422 17.5382 80.6822C17.8406 80.6222 18.154 80.653 18.4388 80.7707C18.7236 80.8884 18.967 81.0877 19.1383 81.3434C19.3096 81.5991 19.401 81.8997 19.401 82.2073C19.399 82.619 19.2342 83.0134 18.9423 83.3046C18.6504 83.5958 18.2551 83.7602 17.8423 83.7622Z" fill="#9B9B9B"/>
<path d="M17.8423 97.1157C17.5341 97.1157 17.2327 97.0245 16.9764 96.8536C16.7201 96.6828 16.5203 96.4399 16.4023 96.1558C16.2843 95.8717 16.2535 95.5591 16.3136 95.2574C16.3738 94.9558 16.5222 94.6787 16.7402 94.4613C16.9582 94.2438 17.2359 94.0957 17.5382 94.0357C17.8406 93.9757 18.154 94.0065 18.4388 94.1242C18.7236 94.2419 18.967 94.4412 19.1383 94.6969C19.3096 94.9526 19.401 95.2532 19.401 95.5608C19.401 95.9732 19.2368 96.3687 18.9445 96.6603C18.6522 96.9519 18.2557 97.1157 17.8423 97.1157Z" fill="#9B9B9B"/>
<path d="M2.18122 3.97018C1.87295 3.97018 1.57159 3.87899 1.31527 3.70813C1.05895 3.53728 0.859177 3.29443 0.741206 3.01031C0.623234 2.72618 0.592367 2.41354 0.652508 2.11192C0.71265 1.81029 0.861098 1.53323 1.07908 1.31577C1.29706 1.09832 1.57479 0.950227 1.87714 0.89023C2.17949 0.830233 2.49288 0.861026 2.77769 0.978714C3.0625 1.0964 3.30593 1.2957 3.4772 1.5514C3.64846 1.80711 3.73988 2.10773 3.73988 2.41527C3.73792 2.82705 3.57307 3.22142 3.28119 3.5126C2.98931 3.80378 2.594 3.96823 2.18122 3.97018Z" fill="#9B9B9B"/>
<path d="M2.1812 17.3246C1.87261 17.3246 1.57096 17.2332 1.31449 17.0621C1.05801 16.8909 0.858237 16.6476 0.740488 16.363C0.622739 16.0785 0.592311 15.7654 0.653059 15.4636C0.713807 15.1618 0.862997 14.8848 1.08173 14.6676C1.30045 14.4504 1.57888 14.3029 1.88172 14.2438C2.18456 14.1846 2.49818 14.2165 2.78286 14.3353C3.06753 14.4541 3.31044 14.6546 3.48081 14.9113C3.65118 15.168 3.74133 15.4693 3.73986 15.7772C3.73789 16.1883 3.5728 16.5818 3.28071 16.8718C2.98862 17.1618 2.59329 17.3246 2.1812 17.3246Z" fill="#9B9B9B"/>
<path d="M2.18122 30.686C1.87295 30.686 1.57159 30.5948 1.31527 30.424C1.05895 30.2531 0.859177 30.0103 0.741206 29.7262C0.623234 29.442 0.592367 29.1294 0.652508 28.8277C0.71265 28.5261 0.861098 28.2492 1.07908 28.0317C1.29706 27.8142 1.57479 27.666 1.87714 27.606C2.17949 27.546 2.49288 27.5768 2.77769 27.6945C3.0625 27.8122 3.30593 28.0115 3.4772 28.2672C3.64846 28.5229 3.73988 28.8236 3.73988 29.1311C3.73988 29.3353 3.69956 29.5375 3.62123 29.7262C3.5429 29.9148 3.42809 30.0862 3.28336 30.2306C3.13862 30.375 2.9668 30.4895 2.77769 30.5676C2.58859 30.6458 2.38591 30.686 2.18122 30.686Z" fill="#9B9B9B"/>
<path d="M2.18142 44.0483C1.87189 44.0482 1.56938 43.9562 1.31246 43.784C1.05553 43.6118 0.855818 43.3672 0.738774 43.0813C0.621731 42.7954 0.592656 42.4813 0.655255 42.1789C0.717853 41.8765 0.869291 41.5995 1.09027 41.3833C1.31124 41.1671 1.59175 41.0214 1.89604 40.9648C2.20033 40.9082 2.51462 40.9432 2.79885 41.0655C3.08309 41.1878 3.3244 41.3917 3.49202 41.6513C3.65965 41.9109 3.746 42.2144 3.74008 42.5231C3.73038 42.9297 3.56212 43.3165 3.27107 43.6013C2.98001 43.8861 2.58911 44.0464 2.18142 44.0483Z" fill="#9B9B9B"/>
<path d="M2.18122 57.0385C1.87295 57.0385 1.57159 56.9473 1.31527 56.7765C1.05895 56.6056 0.859177 56.3628 0.741206 56.0787C0.623234 55.7945 0.592367 55.4819 0.652508 55.1803C0.71265 54.8787 0.861098 54.6016 1.07908 54.3841C1.29706 54.1667 1.57479 54.0186 1.87714 53.9586C2.17949 53.8986 2.49288 53.9294 2.77769 54.0471C3.0625 54.1648 3.30593 54.3641 3.4772 54.6198C3.64846 54.8755 3.73988 55.1761 3.73988 55.4836C3.73988 55.896 3.57566 56.2915 3.28336 56.5831C2.99105 56.8747 2.5946 57.0385 2.18122 57.0385Z" fill="#9B9B9B"/>
<path d="M2.18122 70.3998C1.87295 70.3998 1.57159 70.3086 1.31527 70.1378C1.05895 69.9669 0.859177 69.7241 0.741206 69.4399C0.623234 69.1558 0.592367 68.8432 0.652508 68.5415C0.71265 68.2399 0.861098 67.9629 1.07908 67.7454C1.29706 67.5279 1.57479 67.3798 1.87714 67.3199C2.17949 67.2599 2.49288 67.2906 2.77769 67.4083C3.0625 67.526 3.30593 67.7253 3.4772 67.981C3.64846 68.2367 3.73988 68.5374 3.73988 68.8449C3.73792 69.2567 3.57307 69.651 3.28119 69.9422C2.98931 70.2334 2.594 70.3979 2.18122 70.3998Z" fill="#9B9B9B"/>
<path d="M2.18122 83.7622C1.87295 83.7622 1.57159 83.671 1.31527 83.5001C1.05895 83.3293 0.859177 83.0864 0.741206 82.8023C0.623234 82.5182 0.592367 82.2055 0.652508 81.9039C0.71265 81.6023 0.861098 81.3252 1.07908 81.1078C1.29706 80.8903 1.57479 80.7422 1.87714 80.6822C2.17949 80.6222 2.49288 80.653 2.77769 80.7707C3.0625 80.8884 3.30593 81.0877 3.4772 81.3434C3.64846 81.5991 3.73988 81.8997 3.73988 82.2073C3.73792 82.619 3.57307 83.0134 3.28119 83.3046C2.98931 83.5958 2.594 83.7602 2.18122 83.7622Z" fill="#9B9B9B"/>
<path d="M2.18122 97.1157C1.87295 97.1157 1.57159 97.0245 1.31527 96.8536C1.05895 96.6828 0.859177 96.4399 0.741206 96.1558C0.623234 95.8717 0.592367 95.5591 0.652508 95.2574C0.71265 94.9558 0.861098 94.6787 1.07908 94.4613C1.29706 94.2438 1.57479 94.0957 1.87714 94.0357C2.17949 93.9757 2.49288 94.0065 2.77769 94.1242C3.0625 94.2419 3.30593 94.4412 3.4772 94.6969C3.64846 94.9526 3.73988 95.2532 3.73988 95.5608C3.73988 95.9732 3.57566 96.3687 3.28336 96.6603C2.99105 96.9519 2.5946 97.1157 2.18122 97.1157Z" fill="#9B9B9B"/>
<path d="M49.1647 3.22604C48.8564 3.22604 48.555 3.13485 48.2987 2.96399C48.0424 2.79314 47.8426 2.55029 47.7246 2.26617C47.6067 1.98204 47.5758 1.6694 47.6359 1.36778C47.6961 1.06615 47.8445 0.789095 48.0625 0.571636C48.2805 0.354177 48.5582 0.206086 48.8606 0.146089C49.1629 0.0860921 49.4763 0.116885 49.7611 0.234573C50.0459 0.352261 50.2894 0.551558 50.4606 0.807263C50.6319 1.06297 50.7233 1.36359 50.7233 1.67113C50.7214 2.08291 50.5565 2.47728 50.2646 2.76846C49.9727 3.05964 49.5774 3.22409 49.1647 3.22604Z" fill="#9B9B9B"/>
<path d="M49.1646 16.5806C48.856 16.5806 48.5543 16.4892 48.2978 16.318C48.0414 16.1468 47.8416 15.9035 47.7238 15.619C47.6061 15.3344 47.5757 15.0214 47.6364 14.7195C47.6972 14.4177 47.8464 14.1407 48.0651 13.9235C48.2838 13.7064 48.5622 13.5589 48.8651 13.4997C49.1679 13.4405 49.4815 13.4724 49.7662 13.5912C50.0509 13.7101 50.2938 13.9105 50.4642 14.1672C50.6345 14.4239 50.7247 14.7252 50.7232 15.0331C50.7212 15.4442 50.5562 15.8378 50.2641 16.1278C49.972 16.4178 49.5766 16.5806 49.1646 16.5806Z" fill="#9B9B9B"/>
<path d="M49.1647 29.9428C48.8564 29.9428 48.555 29.8516 48.2987 29.6808C48.0424 29.5099 47.8426 29.2671 47.7246 28.9829C47.6067 28.6988 47.5758 28.3862 47.6359 28.0846C47.6961 27.7829 47.8445 27.5059 48.0625 27.2884C48.2805 27.071 48.5582 26.9229 48.8606 26.8629C49.1629 26.8029 49.4763 26.8337 49.7611 26.9514C50.0459 27.069 50.2894 27.2683 50.4606 27.524C50.6319 27.7797 50.7233 28.0804 50.7233 28.3879C50.7233 28.5921 50.683 28.7943 50.6047 28.9829C50.5263 29.1716 50.4115 29.343 50.2668 29.4874C50.1221 29.6318 49.9502 29.7463 49.7611 29.8245C49.572 29.9026 49.3693 29.9428 49.1647 29.9428Z" fill="#9B9B9B"/>
<path d="M49.1648 43.3042C48.8552 43.3041 48.5527 43.2121 48.2958 43.0399C48.0389 42.8677 47.8392 42.6231 47.7221 42.3372C47.6051 42.0514 47.576 41.7372 47.6386 41.4348C47.7012 41.1324 47.8527 40.8554 48.0737 40.6392C48.2947 40.423 48.5752 40.2773 48.8795 40.2207C49.1838 40.1641 49.498 40.1992 49.7822 40.3214C50.0664 40.4437 50.3077 40.6476 50.4754 40.9072C50.643 41.1668 50.7293 41.4703 50.7234 41.779C50.7137 42.1856 50.5456 42.5724 50.2545 42.8572C49.9634 43.142 49.5724 43.3024 49.1648 43.3042Z" fill="#9B9B9B"/>
<path d="M49.1647 56.2944C48.8564 56.2944 48.555 56.2032 48.2987 56.0323C48.0424 55.8615 47.8426 55.6186 47.7246 55.3345C47.6067 55.0504 47.5758 54.7377 47.6359 54.4361C47.6961 54.1345 47.8445 53.8574 48.0625 53.64C48.2805 53.4225 48.5582 53.2744 48.8606 53.2144C49.1629 53.1544 49.4763 53.1852 49.7611 53.3029C50.0459 53.4206 50.2894 53.6199 50.4606 53.8756C50.6319 54.1313 50.7233 54.4319 50.7233 54.7394C50.7233 55.1518 50.5591 55.5473 50.2668 55.8389C49.9745 56.1305 49.578 56.2944 49.1647 56.2944Z" fill="#9B9B9B"/>
<path d="M49.1647 69.6557C48.8564 69.6557 48.555 69.5645 48.2987 69.3937C48.0424 69.2228 47.8426 68.98 47.7246 68.6958C47.6067 68.4117 47.5758 68.0991 47.6359 67.7975C47.6961 67.4958 47.8445 67.2188 48.0625 67.0013C48.2805 66.7839 48.5582 66.6358 48.8606 66.5758C49.1629 66.5158 49.4763 66.5466 49.7611 66.6643C50.0459 66.7819 50.2894 66.9812 50.4606 67.2369C50.6319 67.4926 50.7233 67.7933 50.7233 68.1008C50.7214 68.5126 50.5565 68.907 50.2646 69.1981C49.9727 69.4893 49.5774 69.6538 49.1647 69.6557Z" fill="#9B9B9B"/>
<path d="M49.1647 83.0181C48.8564 83.0181 48.555 82.9269 48.2987 82.756C48.0424 82.5852 47.8426 82.3423 47.7246 82.0582C47.6067 81.7741 47.5758 81.4614 47.6359 81.1598C47.6961 80.8582 47.8445 80.5811 48.0625 80.3637C48.2805 80.1462 48.5582 79.9981 48.8606 79.9381C49.1629 79.8781 49.4763 79.9089 49.7611 80.0266C50.0459 80.1443 50.2894 80.3436 50.4606 80.5993C50.6319 80.855 50.7233 81.1556 50.7233 81.4632C50.7214 81.875 50.5565 82.2693 50.2646 82.5605C49.9727 82.8517 49.5774 83.0161 49.1647 83.0181Z" fill="#9B9B9B"/>
<path d="M49.1647 96.3725C48.8564 96.3725 48.555 96.2813 48.2987 96.1105C48.0424 95.9396 47.8426 95.6968 47.7246 95.4126C47.6067 95.1285 47.5758 94.8159 47.6359 94.5143C47.6961 94.2126 47.8445 93.9356 48.0625 93.7181C48.2805 93.5006 48.5582 93.3526 48.8606 93.2926C49.1629 93.2326 49.4763 93.2634 49.7611 93.381C50.0459 93.4987 50.2894 93.698 50.4606 93.9537C50.6319 94.2094 50.7233 94.5101 50.7233 94.8176C50.7233 95.23 50.5591 95.6255 50.2668 95.9171C49.9745 96.2087 49.578 96.3725 49.1647 96.3725Z" fill="#9B9B9B"/>
<path d="M33.5035 3.22604C33.1952 3.22604 32.8939 3.13485 32.6375 2.96399C32.3812 2.79314 32.1814 2.55029 32.0635 2.26617C31.9455 1.98204 31.9146 1.6694 31.9748 1.36778C32.0349 1.06615 32.1834 0.789095 32.4014 0.571636C32.6193 0.354177 32.8971 0.206086 33.1994 0.146089C33.5018 0.0860921 33.8152 0.116885 34.1 0.234573C34.3848 0.352261 34.6282 0.551558 34.7995 0.807263C34.9707 1.06297 35.0621 1.36359 35.0621 1.67113C35.0602 2.08291 34.8953 2.47728 34.6035 2.76846C34.3116 3.05964 33.9163 3.22409 33.5035 3.22604Z" fill="#9B9B9B"/>
<path d="M33.5035 16.5806C33.1949 16.5806 32.8933 16.4892 32.6368 16.318C32.3803 16.1468 32.1805 15.9035 32.0628 15.619C31.945 15.3344 31.9146 15.0214 31.9753 14.7195C32.0361 14.4177 32.1853 14.1407 32.404 13.9235C32.6227 13.7064 32.9012 13.5589 33.204 13.4997C33.5068 13.4405 33.8205 13.4724 34.1052 13.5912C34.3898 13.7101 34.6327 13.9105 34.8031 14.1672C34.9735 14.4239 35.0636 14.7252 35.0621 15.0331C35.0602 15.4442 34.8951 15.8378 34.603 16.1278C34.3109 16.4178 33.9156 16.5806 33.5035 16.5806Z" fill="#9B9B9B"/>
<path d="M33.5035 29.9428C33.1952 29.9428 32.8939 29.8516 32.6375 29.6808C32.3812 29.5099 32.1814 29.2671 32.0635 28.9829C31.9455 28.6988 31.9146 28.3862 31.9748 28.0846C32.0349 27.7829 32.1834 27.5059 32.4014 27.2884C32.6193 27.071 32.8971 26.9229 33.1994 26.8629C33.5018 26.8029 33.8152 26.8337 34.1 26.9514C34.3848 27.069 34.6282 27.2683 34.7995 27.524C34.9707 27.7797 35.0621 28.0804 35.0621 28.3879C35.0621 28.5921 35.0218 28.7943 34.9435 28.9829C34.8652 29.1716 34.7504 29.343 34.6056 29.4874C34.4609 29.6318 34.2891 29.7463 34.1 29.8245C33.9109 29.9026 33.7082 29.9428 33.5035 29.9428Z" fill="#9B9B9B"/>
<path d="M33.5037 43.3042C33.1942 43.3041 32.8917 43.2121 32.6347 43.0399C32.3778 42.8677 32.1781 42.6231 32.061 42.3372C31.944 42.0514 31.9149 41.7372 31.9775 41.4348C32.0401 41.1324 32.1916 40.8554 32.4125 40.6392C32.6335 40.423 32.914 40.2773 33.2183 40.2207C33.5226 40.1641 33.8369 40.1992 34.1211 40.3214C34.4054 40.4437 34.6467 40.6476 34.8143 40.9072C34.9819 41.1668 35.0683 41.4703 35.0623 41.779C35.0526 42.1856 34.8844 42.5724 34.5933 42.8572C34.3023 43.142 33.9114 43.3024 33.5037 43.3042Z" fill="#9B9B9B"/>
<path d="M33.5035 56.2944C33.1952 56.2944 32.8939 56.2032 32.6375 56.0323C32.3812 55.8615 32.1814 55.6186 32.0635 55.3345C31.9455 55.0504 31.9146 54.7377 31.9748 54.4361C32.0349 54.1345 32.1834 53.8574 32.4014 53.64C32.6193 53.4225 32.8971 53.2744 33.1994 53.2144C33.5018 53.1544 33.8152 53.1852 34.1 53.3029C34.3848 53.4206 34.6282 53.6199 34.7995 53.8756C34.9707 54.1313 35.0621 54.4319 35.0621 54.7394C35.0621 55.1518 34.8979 55.5473 34.6056 55.8389C34.3133 56.1305 33.9169 56.2944 33.5035 56.2944Z" fill="#9B9B9B"/>
<path d="M33.5035 69.6557C33.1952 69.6557 32.8939 69.5645 32.6375 69.3937C32.3812 69.2228 32.1814 68.98 32.0635 68.6958C31.9455 68.4117 31.9146 68.0991 31.9748 67.7975C32.0349 67.4958 32.1834 67.2188 32.4014 67.0013C32.6193 66.7839 32.8971 66.6358 33.1994 66.5758C33.5018 66.5158 33.8152 66.5466 34.1 66.6643C34.3848 66.7819 34.6282 66.9812 34.7995 67.2369C34.9707 67.4926 35.0621 67.7933 35.0621 68.1008C35.0602 68.5126 34.8953 68.907 34.6035 69.1981C34.3116 69.4893 33.9163 69.6538 33.5035 69.6557Z" fill="#9B9B9B"/>
<path d="M33.5035 83.0181C33.1952 83.0181 32.8939 82.9269 32.6375 82.756C32.3812 82.5852 32.1814 82.3423 32.0635 82.0582C31.9455 81.7741 31.9146 81.4614 31.9748 81.1598C32.0349 80.8582 32.1834 80.5811 32.4014 80.3637C32.6193 80.1462 32.8971 79.9981 33.1994 79.9381C33.5018 79.8781 33.8152 79.9089 34.1 80.0266C34.3848 80.1443 34.6282 80.3436 34.7995 80.5993C34.9707 80.855 35.0621 81.1556 35.0621 81.4632C35.0602 81.875 34.8953 82.2693 34.6035 82.5605C34.3116 82.8517 33.9163 83.0161 33.5035 83.0181Z" fill="#9B9B9B"/>
<path d="M33.5035 96.3725C33.1952 96.3725 32.8939 96.2813 32.6375 96.1105C32.3812 95.9396 32.1814 95.6968 32.0635 95.4126C31.9455 95.1285 31.9146 94.8159 31.9748 94.5143C32.0349 94.2126 32.1834 93.9356 32.4014 93.7181C32.6193 93.5006 32.8971 93.3526 33.1994 93.2926C33.5018 93.2326 33.8152 93.2634 34.1 93.381C34.3848 93.4987 34.6282 93.698 34.7995 93.9537C34.9707 94.2094 35.0621 94.5101 35.0621 94.8176C35.0621 95.23 34.8979 95.6255 34.6056 95.9171C34.3133 96.2087 33.9169 96.3725 33.5035 96.3725Z" fill="#9B9B9B"/>
<path d="M79.7413 3.97018C79.433 3.97018 79.1317 3.87899 78.8754 3.70813C78.6191 3.53728 78.4193 3.29443 78.3013 3.01031C78.1833 2.72618 78.1525 2.41354 78.2126 2.11192C78.2728 1.81029 78.4212 1.53323 78.6392 1.31577C78.8572 1.09832 79.1349 0.950227 79.4372 0.89023C79.7396 0.830233 80.053 0.861026 80.3378 0.978714C80.6226 1.0964 80.866 1.2957 81.0373 1.5514C81.2086 1.80711 81.3 2.10773 81.3 2.41527C81.298 2.82705 81.1332 3.22142 80.8413 3.5126C80.5494 3.80378 80.1541 3.96823 79.7413 3.97018Z" fill="#9B9B9B"/>
<path d="M79.7412 17.3246C79.4326 17.3246 79.131 17.2332 78.8745 17.0621C78.618 16.8909 78.4183 16.6476 78.3005 16.363C78.1828 16.0785 78.1523 15.7654 78.2131 15.4636C78.2738 15.1618 78.423 14.8848 78.6417 14.6676C78.8605 14.4504 79.1389 14.3029 79.4417 14.2438C79.7446 14.1846 80.0582 14.2165 80.3429 14.3353C80.6276 14.4541 80.8705 14.6546 81.0408 14.9113C81.2112 15.168 81.3014 15.4693 81.2999 15.7772C81.2979 16.1883 81.1328 16.5818 80.8407 16.8718C80.5486 17.1618 80.1533 17.3246 79.7412 17.3246Z" fill="#9B9B9B"/>
<path d="M79.7413 30.686C79.433 30.686 79.1317 30.5948 78.8754 30.424C78.6191 30.2531 78.4193 30.0103 78.3013 29.7262C78.1833 29.442 78.1525 29.1294 78.2126 28.8277C78.2728 28.5261 78.4212 28.2492 78.6392 28.0317C78.8572 27.8142 79.1349 27.666 79.4372 27.606C79.7396 27.546 80.053 27.5768 80.3378 27.6945C80.6226 27.8122 80.866 28.0115 81.0373 28.2672C81.2086 28.5229 81.3 28.8236 81.3 29.1311C81.3 29.3353 81.2597 29.5375 81.1813 29.7262C81.103 29.9148 80.9882 30.0862 80.8435 30.2306C80.6987 30.375 80.5269 30.4895 80.3378 30.5676C80.1487 30.6458 79.946 30.686 79.7413 30.686Z" fill="#9B9B9B"/>
<path d="M79.7414 44.0483C79.4319 44.0482 79.1294 43.9562 78.8724 43.784C78.6155 43.6118 78.4158 43.3672 78.2988 43.0813C78.1817 42.7954 78.1527 42.4813 78.2153 42.1789C78.2779 41.8765 78.4293 41.5995 78.6503 41.3833C78.8712 41.1671 79.1518 41.0214 79.456 40.9648C79.7603 40.9082 80.0746 40.9432 80.3589 41.0655C80.6431 41.1878 80.8844 41.3917 81.052 41.6513C81.2196 41.9109 81.306 42.2144 81.3001 42.5231C81.2904 42.9297 81.1221 43.3165 80.8311 43.6013C80.54 43.8861 80.1491 44.0464 79.7414 44.0483Z" fill="#9B9B9B"/>
<path d="M79.7413 57.0385C79.433 57.0385 79.1317 56.9473 78.8754 56.7765C78.6191 56.6056 78.4193 56.3628 78.3013 56.0787C78.1833 55.7945 78.1525 55.4819 78.2126 55.1803C78.2728 54.8787 78.4212 54.6016 78.6392 54.3841C78.8572 54.1667 79.1349 54.0186 79.4372 53.9586C79.7396 53.8986 80.053 53.9294 80.3378 54.0471C80.6226 54.1648 80.866 54.3641 81.0373 54.6198C81.2086 54.8755 81.3 55.1761 81.3 55.4836C81.3 55.896 81.1358 56.2915 80.8435 56.5831C80.5512 56.8747 80.1547 57.0385 79.7413 57.0385Z" fill="#9B9B9B"/>
<path d="M79.7413 70.3998C79.433 70.3998 79.1317 70.3086 78.8754 70.1378C78.6191 69.9669 78.4193 69.7241 78.3013 69.4399C78.1833 69.1558 78.1525 68.8432 78.2126 68.5415C78.2728 68.2399 78.4212 67.9629 78.6392 67.7454C78.8572 67.5279 79.1349 67.3798 79.4372 67.3199C79.7396 67.2599 80.053 67.2906 80.3378 67.4083C80.6226 67.526 80.866 67.7253 81.0373 67.981C81.2086 68.2367 81.3 68.5374 81.3 68.8449C81.298 69.2567 81.1332 69.651 80.8413 69.9422C80.5494 70.2334 80.1541 70.3979 79.7413 70.3998Z" fill="#9B9B9B"/>
<path d="M79.7413 83.7622C79.433 83.7622 79.1317 83.671 78.8754 83.5001C78.6191 83.3293 78.4193 83.0864 78.3013 82.8023C78.1833 82.5182 78.1525 82.2055 78.2126 81.9039C78.2728 81.6023 78.4212 81.3252 78.6392 81.1078C78.8572 80.8903 79.1349 80.7422 79.4372 80.6822C79.7396 80.6222 80.053 80.653 80.3378 80.7707C80.6226 80.8884 80.866 81.0877 81.0373 81.3434C81.2086 81.5991 81.3 81.8997 81.3 82.2073C81.298 82.619 81.1332 83.0134 80.8413 83.3046C80.5494 83.5958 80.1541 83.7602 79.7413 83.7622Z" fill="#9B9B9B"/>
<path d="M79.7413 97.1157C79.433 97.1157 79.1317 97.0245 78.8754 96.8536C78.6191 96.6828 78.4193 96.4399 78.3013 96.1558C78.1833 95.8717 78.1525 95.5591 78.2126 95.2574C78.2728 94.9558 78.4212 94.6787 78.6392 94.4613C78.8572 94.2438 79.1349 94.0957 79.4372 94.0357C79.7396 93.9757 80.053 94.0065 80.3378 94.1242C80.6226 94.2419 80.866 94.4412 81.0373 94.6969C81.2086 94.9526 81.3 95.2532 81.3 95.5608C81.3 95.9732 81.1358 96.3687 80.8435 96.6603C80.5512 96.9519 80.1547 97.1157 79.7413 97.1157Z" fill="#9B9B9B"/>
<path d="M64.0802 3.97018C63.7719 3.97018 63.4705 3.87899 63.2142 3.70813C62.9579 3.53728 62.7581 3.29443 62.6401 3.01031C62.5222 2.72618 62.4913 2.41354 62.5514 2.11192C62.6116 1.81029 62.76 1.53323 62.978 1.31577C63.196 1.09832 63.4737 0.950227 63.7761 0.89023C64.0784 0.830233 64.3918 0.861026 64.6766 0.978714C64.9614 1.0964 65.2049 1.2957 65.3761 1.5514C65.5474 1.80711 65.6388 2.10773 65.6388 2.41527C65.6369 2.82705 65.472 3.22142 65.1801 3.5126C64.8882 3.80378 64.4929 3.96823 64.0802 3.97018Z" fill="#9B9B9B"/>
<path d="M64.0802 17.3246C63.7716 17.3246 63.4699 17.2332 63.2134 17.0621C62.957 16.8909 62.7572 16.6476 62.6394 16.363C62.5217 16.0785 62.4913 15.7654 62.552 15.4636C62.6128 15.1618 62.762 14.8848 62.9807 14.6676C63.1994 14.4504 63.4778 14.3029 63.7807 14.2438C64.0835 14.1846 64.3971 14.2165 64.6818 14.3353C64.9665 14.4541 65.2094 14.6546 65.3798 14.9113C65.5501 15.168 65.6403 15.4693 65.6388 15.7772C65.6368 16.1883 65.4718 16.5818 65.1797 16.8718C64.8876 17.1618 64.4922 17.3246 64.0802 17.3246Z" fill="#9B9B9B"/>
<path d="M64.0802 30.686C63.7719 30.686 63.4705 30.5948 63.2142 30.424C62.9579 30.2531 62.7581 30.0103 62.6401 29.7262C62.5222 29.442 62.4913 29.1294 62.5514 28.8277C62.6116 28.5261 62.76 28.2492 62.978 28.0317C63.196 27.8142 63.4737 27.666 63.7761 27.606C64.0784 27.546 64.3918 27.5768 64.6766 27.6945C64.9614 27.8122 65.2049 28.0115 65.3761 28.2672C65.5474 28.5229 65.6388 28.8236 65.6388 29.1311C65.6388 29.3353 65.5985 29.5375 65.5202 29.7262C65.4418 29.9148 65.327 30.0862 65.1823 30.2306C65.0376 30.375 64.8657 30.4895 64.6766 30.5676C64.4875 30.6458 64.2848 30.686 64.0802 30.686Z" fill="#9B9B9B"/>
<path d="M64.0804 44.0483C63.7708 44.0482 63.4683 43.9562 63.2114 43.784C62.9545 43.6118 62.7548 43.3672 62.6377 43.0813C62.5207 42.7954 62.4916 42.4813 62.5542 42.1789C62.6168 41.8765 62.7682 41.5995 62.9892 41.3833C63.2102 41.1671 63.4907 41.0214 63.795 40.9648C64.0993 40.9082 64.4136 40.9432 64.6978 41.0655C64.982 41.1878 65.2233 41.3917 65.391 41.6513C65.5586 41.9109 65.6449 42.2144 65.639 42.5231C65.6293 42.9297 65.461 43.3165 65.17 43.6013C64.8789 43.8861 64.488 44.0464 64.0804 44.0483Z" fill="#9B9B9B"/>
<path d="M64.0802 57.0385C63.7719 57.0385 63.4705 56.9473 63.2142 56.7765C62.9579 56.6056 62.7581 56.3628 62.6401 56.0787C62.5222 55.7945 62.4913 55.4819 62.5514 55.1803C62.6116 54.8787 62.76 54.6016 62.978 54.3841C63.196 54.1667 63.4737 54.0186 63.7761 53.9586C64.0784 53.8986 64.3918 53.9294 64.6766 54.0471C64.9614 54.1648 65.2049 54.3641 65.3761 54.6198C65.5474 54.8755 65.6388 55.1761 65.6388 55.4836C65.6388 55.896 65.4746 56.2915 65.1823 56.5831C64.89 56.8747 64.4935 57.0385 64.0802 57.0385Z" fill="#9B9B9B"/>
<path d="M64.0802 70.3998C63.7719 70.3998 63.4705 70.3086 63.2142 70.1378C62.9579 69.9669 62.7581 69.7241 62.6401 69.4399C62.5222 69.1558 62.4913 68.8432 62.5514 68.5415C62.6116 68.2399 62.76 67.9629 62.978 67.7454C63.196 67.5279 63.4737 67.3798 63.7761 67.3199C64.0784 67.2599 64.3918 67.2906 64.6766 67.4083C64.9614 67.526 65.2049 67.7253 65.3761 67.981C65.5474 68.2367 65.6388 68.5374 65.6388 68.8449C65.6369 69.2567 65.472 69.651 65.1801 69.9422C64.8882 70.2334 64.4929 70.3979 64.0802 70.3998Z" fill="#9B9B9B"/>
<path d="M64.0802 83.7622C63.7719 83.7622 63.4705 83.671 63.2142 83.5001C62.9579 83.3293 62.7581 83.0864 62.6401 82.8023C62.5222 82.5182 62.4913 82.2055 62.5514 81.9039C62.6116 81.6023 62.76 81.3252 62.978 81.1078C63.196 80.8903 63.4737 80.7422 63.7761 80.6822C64.0784 80.6222 64.3918 80.653 64.6766 80.7707C64.9614 80.8884 65.2049 81.0877 65.3761 81.3434C65.5474 81.5991 65.6388 81.8997 65.6388 82.2073C65.6369 82.619 65.472 83.0134 65.1801 83.3046C64.8882 83.5958 64.4929 83.7602 64.0802 83.7622Z" fill="#9B9B9B"/>
<path d="M64.0802 97.1157C63.7719 97.1157 63.4705 97.0245 63.2142 96.8536C62.9579 96.6828 62.7581 96.4399 62.6401 96.1558C62.5222 95.8717 62.4913 95.5591 62.5514 95.2574C62.6116 94.9558 62.76 94.6787 62.978 94.4613C63.196 94.2438 63.4737 94.0957 63.7761 94.0357C64.0784 93.9757 64.3918 94.0065 64.6766 94.1242C64.9614 94.2419 65.2049 94.4412 65.3761 94.6969C65.5474 94.9526 65.6388 95.2532 65.6388 95.5608C65.6388 95.9732 65.4746 96.3687 65.1823 96.6603C64.89 96.9519 64.4935 97.1157 64.0802 97.1157Z" fill="#9B9B9B"/>
<path d="M111.064 3.22604C110.756 3.22604 110.454 3.13485 110.198 2.96399C109.942 2.79314 109.742 2.55029 109.624 2.26617C109.506 1.98204 109.475 1.6694 109.535 1.36778C109.595 1.06615 109.744 0.789095 109.962 0.571636C110.18 0.354177 110.458 0.206086 110.76 0.146089C111.062 0.0860921 111.376 0.116885 111.661 0.234573C111.945 0.352261 112.189 0.551558 112.36 0.807263C112.531 1.06297 112.623 1.36359 112.623 1.67113C112.621 2.08291 112.456 2.47728 112.164 2.76846C111.872 3.05964 111.477 3.22409 111.064 3.22604Z" fill="#9B9B9B"/>
<path d="M111.063 16.5806C110.754 16.5806 110.453 16.4892 110.196 16.318C109.94 16.1468 109.74 15.9035 109.622 15.619C109.505 15.3344 109.474 15.0214 109.535 14.7195C109.596 14.4177 109.745 14.1407 109.964 13.9235C110.182 13.7064 110.461 13.5589 110.764 13.4997C111.066 13.4405 111.38 13.4724 111.665 13.5912C111.949 13.7101 112.192 13.9105 112.363 14.1672C112.533 14.4239 112.623 14.7252 112.622 15.0331C112.62 15.4442 112.455 15.8378 112.163 16.1278C111.87 16.4178 111.475 16.5806 111.063 16.5806Z" fill="#9B9B9B"/>
<path d="M111.064 29.9428C110.756 29.9428 110.454 29.8516 110.198 29.6808C109.942 29.5099 109.742 29.2671 109.624 28.9829C109.506 28.6988 109.475 28.3862 109.535 28.0846C109.595 27.7829 109.744 27.5059 109.962 27.2884C110.18 27.071 110.458 26.9229 110.76 26.8629C111.062 26.8029 111.376 26.8337 111.661 26.9514C111.945 27.069 112.189 27.2683 112.36 27.524C112.531 27.7797 112.623 28.0804 112.623 28.3879C112.623 28.5921 112.582 28.7943 112.504 28.9829C112.426 29.1716 112.311 29.343 112.166 29.4874C112.021 29.6318 111.85 29.7463 111.661 29.8245C111.471 29.9026 111.269 29.9428 111.064 29.9428Z" fill="#9B9B9B"/>
<path d="M111.063 43.3042C110.754 43.3041 110.451 43.2121 110.194 43.0399C109.937 42.8677 109.737 42.6231 109.62 42.3372C109.503 42.0514 109.474 41.7372 109.537 41.4348C109.599 41.1324 109.751 40.8554 109.972 40.6392C110.193 40.423 110.473 40.2773 110.778 40.2207C111.082 40.1641 111.396 40.1992 111.68 40.3214C111.965 40.4437 112.206 40.6476 112.374 40.9072C112.541 41.1668 112.628 41.4703 112.622 41.779C112.612 42.1856 112.444 42.5724 112.153 42.8572C111.862 43.142 111.471 43.3024 111.063 43.3042Z" fill="#9B9B9B"/>
<path d="M111.064 56.2944C110.756 56.2944 110.454 56.2032 110.198 56.0323C109.942 55.8615 109.742 55.6186 109.624 55.3345C109.506 55.0504 109.475 54.7377 109.535 54.4361C109.595 54.1345 109.744 53.8574 109.962 53.64C110.18 53.4225 110.458 53.2744 110.76 53.2144C111.062 53.1544 111.376 53.1852 111.661 53.3029C111.945 53.4206 112.189 53.6199 112.36 53.8756C112.531 54.1313 112.623 54.4319 112.623 54.7394C112.623 55.1518 112.458 55.5473 112.166 55.8389C111.874 56.1305 111.477 56.2944 111.064 56.2944Z" fill="#9B9B9B"/>
<path d="M111.064 69.6557C110.756 69.6557 110.454 69.5645 110.198 69.3937C109.942 69.2228 109.742 68.98 109.624 68.6958C109.506 68.4117 109.475 68.0991 109.535 67.7975C109.595 67.4958 109.744 67.2188 109.962 67.0013C110.18 66.7839 110.458 66.6358 110.76 66.5758C111.062 66.5158 111.376 66.5466 111.661 66.6643C111.945 66.7819 112.189 66.9812 112.36 67.2369C112.531 67.4926 112.623 67.7933 112.623 68.1008C112.621 68.5126 112.456 68.907 112.164 69.1981C111.872 69.4893 111.477 69.6538 111.064 69.6557Z" fill="#9B9B9B"/>
<path d="M111.064 83.0181C110.756 83.0181 110.454 82.9269 110.198 82.756C109.942 82.5852 109.742 82.3423 109.624 82.0582C109.506 81.7741 109.475 81.4614 109.535 81.1598C109.595 80.8582 109.744 80.5811 109.962 80.3637C110.18 80.1462 110.458 79.9981 110.76 79.9381C111.062 79.8781 111.376 79.9089 111.661 80.0266C111.945 80.1443 112.189 80.3436 112.36 80.5993C112.531 80.855 112.623 81.1556 112.623 81.4632C112.621 81.875 112.456 82.2693 112.164 82.5605C111.872 82.8517 111.477 83.0161 111.064 83.0181Z" fill="#9B9B9B"/>
<path d="M111.064 96.3725C110.756 96.3725 110.454 96.2813 110.198 96.1105C109.942 95.9396 109.742 95.6968 109.624 95.4126C109.506 95.1285 109.475 94.8159 109.535 94.5143C109.595 94.2126 109.744 93.9356 109.962 93.7181C110.18 93.5006 110.458 93.3526 110.76 93.2926C111.062 93.2326 111.376 93.2634 111.661 93.381C111.945 93.4987 112.189 93.698 112.36 93.9537C112.531 94.2094 112.623 94.5101 112.623 94.8176C112.623 95.23 112.458 95.6255 112.166 95.9171C111.874 96.2087 111.477 96.3725 111.064 96.3725Z" fill="#9B9B9B"/>
<path d="M95.4024 3.22604C95.0941 3.22604 94.7928 3.13485 94.5364 2.96399C94.2801 2.79314 94.0803 2.55029 93.9624 2.26617C93.8444 1.98204 93.8135 1.6694 93.8737 1.36778C93.9338 1.06615 94.0823 0.789095 94.3002 0.571636C94.5182 0.354177 94.796 0.206086 95.0983 0.146089C95.4007 0.0860921 95.7141 0.116885 95.9989 0.234573C96.2837 0.352261 96.5271 0.551558 96.6984 0.807263C96.8696 1.06297 96.961 1.36359 96.961 1.67113C96.9591 2.08291 96.7942 2.47728 96.5024 2.76846C96.2105 3.05964 95.8152 3.22409 95.4024 3.22604Z" fill="#9B9B9B"/>
<path d="M95.4024 16.5806C95.0938 16.5806 94.7921 16.4892 94.5357 16.318C94.2792 16.1468 94.0794 15.9035 93.9617 15.619C93.8439 15.3344 93.8135 15.0214 93.8742 14.7195C93.935 14.4177 94.0842 14.1407 94.3029 13.9235C94.5216 13.7064 94.8001 13.5589 95.1029 13.4997C95.4057 13.4405 95.7194 13.4724 96.004 13.5912C96.2887 13.7101 96.5316 13.9105 96.702 14.1672C96.8724 14.4239 96.9625 14.7252 96.961 15.0331C96.9591 15.4442 96.794 15.8378 96.5019 16.1278C96.2098 16.4178 95.8145 16.5806 95.4024 16.5806Z" fill="#9B9B9B"/>
<path d="M95.4024 29.9428C95.0941 29.9428 94.7928 29.8516 94.5364 29.6808C94.2801 29.5099 94.0803 29.2671 93.9624 28.9829C93.8444 28.6988 93.8135 28.3862 93.8737 28.0846C93.9338 27.7829 94.0823 27.5059 94.3002 27.2884C94.5182 27.071 94.796 26.9229 95.0983 26.8629C95.4007 26.8029 95.7141 26.8337 95.9989 26.9514C96.2837 27.069 96.5271 27.2683 96.6984 27.524C96.8696 27.7797 96.961 28.0804 96.961 28.3879C96.961 28.5921 96.9207 28.7943 96.8424 28.9829C96.7641 29.1716 96.6493 29.343 96.5045 29.4874C96.3598 29.6318 96.188 29.7463 95.9989 29.8245C95.8097 29.9026 95.6071 29.9428 95.4024 29.9428Z" fill="#9B9B9B"/>
<path d="M95.4026 43.3042C95.0931 43.3041 94.7905 43.2121 94.5336 43.0399C94.2767 42.8677 94.077 42.6231 93.9599 42.3372C93.8429 42.0514 93.8138 41.7372 93.8764 41.4348C93.939 41.1324 94.0905 40.8554 94.3114 40.6392C94.5324 40.423 94.8129 40.2773 95.1172 40.2207C95.4215 40.1641 95.7358 40.1992 96.02 40.3214C96.3042 40.4437 96.5456 40.6476 96.7132 40.9072C96.8808 41.1668 96.9672 41.4703 96.9612 41.779C96.9515 42.1856 96.7833 42.5724 96.4922 42.8572C96.2012 43.142 95.8103 43.3024 95.4026 43.3042Z" fill="#9B9B9B"/>
<path d="M95.4024 56.2944C95.0941 56.2944 94.7928 56.2032 94.5364 56.0323C94.2801 55.8615 94.0803 55.6186 93.9624 55.3345C93.8444 55.0504 93.8135 54.7377 93.8737 54.4361C93.9338 54.1345 94.0823 53.8574 94.3002 53.64C94.5182 53.4225 94.796 53.2744 95.0983 53.2144C95.4007 53.1544 95.7141 53.1852 95.9989 53.3029C96.2837 53.4206 96.5271 53.6199 96.6984 53.8756C96.8696 54.1313 96.961 54.4319 96.961 54.7394C96.961 55.1518 96.7968 55.5473 96.5045 55.8389C96.2122 56.1305 95.8158 56.2944 95.4024 56.2944Z" fill="#9B9B9B"/>
<path d="M95.4024 69.6557C95.0941 69.6557 94.7928 69.5645 94.5364 69.3937C94.2801 69.2228 94.0803 68.98 93.9624 68.6958C93.8444 68.4117 93.8135 68.0991 93.8737 67.7975C93.9338 67.4958 94.0823 67.2188 94.3002 67.0013C94.5182 66.7839 94.796 66.6358 95.0983 66.5758C95.4007 66.5158 95.7141 66.5466 95.9989 66.6643C96.2837 66.7819 96.5271 66.9812 96.6984 67.2369C96.8696 67.4926 96.961 67.7933 96.961 68.1008C96.9591 68.5126 96.7942 68.907 96.5024 69.1981C96.2105 69.4893 95.8152 69.6538 95.4024 69.6557Z" fill="#9B9B9B"/>
<path d="M95.4024 83.0181C95.0941 83.0181 94.7928 82.9269 94.5364 82.756C94.2801 82.5852 94.0803 82.3423 93.9624 82.0582C93.8444 81.7741 93.8135 81.4614 93.8737 81.1598C93.9338 80.8582 94.0823 80.5811 94.3002 80.3637C94.5182 80.1462 94.796 79.9981 95.0983 79.9381C95.4007 79.8781 95.7141 79.9089 95.9989 80.0266C96.2837 80.1443 96.5271 80.3436 96.6984 80.5993C96.8696 80.855 96.961 81.1556 96.961 81.4632C96.9591 81.875 96.7942 82.2693 96.5024 82.5605C96.2105 82.8517 95.8152 83.0161 95.4024 83.0181Z" fill="#9B9B9B"/>
<path d="M95.4024 96.3725C95.0941 96.3725 94.7928 96.2813 94.5364 96.1105C94.2801 95.9396 94.0803 95.6968 93.9624 95.4126C93.8444 95.1285 93.8135 94.8159 93.8737 94.5143C93.9338 94.2126 94.0823 93.9356 94.3002 93.7181C94.5182 93.5006 94.796 93.3526 95.0983 93.2926C95.4007 93.2326 95.7141 93.2634 95.9989 93.381C96.2837 93.4987 96.5271 93.698 96.6984 93.9537C96.8696 94.2094 96.961 94.5101 96.961 94.8176C96.961 95.23 96.7968 95.6255 96.5045 95.9171C96.2122 96.2087 95.8158 96.3725 95.4024 96.3725Z" fill="#9B9B9B"/>
</g>
<defs>
<clipPath id="clip0_3905_80">
<rect width="112" height="97" fill="white" transform="translate(0.622559 0.116211)"/>
</clipPath>
</defs>
</svg>
